<svg width="31" height="30" viewBox="0 0 31 30" fill="none" xmlns="http://www.w3.org/2000/svg">
<path fill-rule="evenodd" clip-rule="evenodd" d="M4.68219 7.5C4.68219 7.10218 4.84145 6.72064 5.12494 6.43934C5.40842 6.15804 5.79291 6 6.19382 6H24.3334C24.7343 6 25.1188 6.15804 25.4022 6.43934C25.6857 6.72064 25.845 7.10218 25.845 7.5C25.845 7.89782 25.6857 8.27936 25.4022 8.56066C25.1188 8.84196 24.7343 9 24.3334 9H6.19382C5.79291 9 5.40842 8.84196 5.12494 8.56066C4.84145 8.27936 4.68219 7.89782 4.68219 7.5ZM4.68219 15C4.68219 14.6022 4.84145 14.2206 5.12494 13.9393C5.40842 13.658 5.79291 13.5 6.19382 13.5H15.2636C15.6645 13.5 16.049 13.658 16.3325 13.9393C16.616 14.2206 16.7752 14.6022 16.7752 15C16.7752 15.3978 16.616 15.7794 16.3325 16.0607C16.049 16.342 15.6645 16.5 15.2636 16.5H6.19382C5.79291 16.5 5.40842 16.342 5.12494 16.0607C4.84145 15.7794 4.68219 15.3978 4.68219 15ZM4.68219 22.5C4.68219 22.1022 4.84145 21.7206 5.12494 21.4393C5.40842 21.158 5.79291 21 6.19382 21H24.3334C24.7343 21 25.1188 21.158 25.4022 21.4393C25.6857 21.7206 25.845 22.1022 25.845 22.5C25.845 22.8978 25.6857 23.2794 25.4022 23.5607C25.1188 23.842 24.7343 24 24.3334 24H6.19382C5.79291 24 5.40842 23.842 5.12494 23.5607C4.84145 23.2794 4.68219 22.8978 4.68219 22.5Z" fill="#363636"/>
</svg>
