<svg width="26" height="26" viewBox="0 0 26 26" fill="none" xmlns="http://www.w3.org/2000/svg">
<path d="M13.7692 2.48085C13.6685 2.37931 13.5487 2.29872 13.4166 2.24372C13.2846 2.18872 13.143 2.1604 13 2.1604C12.857 2.1604 12.7154 2.18872 12.5834 2.24372C12.4514 2.29872 12.3316 2.37931 12.2308 2.48085L2.48085 12.2308C2.37931 12.3316 2.29872 12.4514 2.24372 12.5834C2.18872 12.7154 2.1604 12.857 2.1604 13C2.1604 13.143 2.18872 13.2846 2.24372 13.4166C2.29872 13.5487 2.37931 13.6685 2.48085 13.7692C2.58208 13.8696 2.70213 13.949 2.83412 14.0029C2.96611 14.0568 3.10744 14.0842 3.25002 14.0833H4.33335V21.6667C4.33335 22.2413 4.56162 22.7924 4.96795 23.1987C5.37428 23.6051 5.92538 23.8333 6.50002 23.8333H19.5C20.0747 23.8333 20.6258 23.6051 21.0321 23.1987C21.4384 22.7924 21.6667 22.2413 21.6667 21.6667V14.0833H22.75C23.0373 14.0833 23.3129 13.9692 23.516 13.766C23.7192 13.5629 23.8333 13.2873 23.8333 13C23.8342 12.8574 23.8068 12.7161 23.7529 12.5841C23.699 12.4521 23.6196 12.3321 23.5192 12.2308L13.7692 2.48085ZM6.50002 21.6667V11.2775L13 4.77751L19.5 11.2775V21.6667H6.50002Z" fill="#0F74FF"/>
</svg>
