<svg width="24" height="24" viewBox="0 0 24 24" fill="none" xmlns="http://www.w3.org/2000/svg">
<path d="M20.25 3.75H3.75001C3.35219 3.75 2.97066 3.90804 2.68935 4.18934C2.40805 4.47064 2.25001 4.85218 2.25001 5.25V20.25C2.24925 20.378 2.28167 20.504 2.3441 20.6157C2.40654 20.7274 2.49686 20.8211 2.60626 20.8875C2.71479 20.9557 2.83898 20.995 2.967 21.0016C3.09502 21.0081 3.22258 20.9818 3.33751 20.925L6.00001 19.5844L8.66251 20.925C8.7678 20.9757 8.88316 21.002 9.00001 21.002C9.11687 21.002 9.23222 20.9757 9.33751 20.925L12 19.5844L14.6625 20.925C14.7682 20.9744 14.8834 21 15 21C15.1166 21 15.2319 20.9744 15.3375 20.925L18 19.5844L20.6625 20.925C20.7774 20.9818 20.905 21.0081 21.033 21.0016C21.161 20.995 21.2852 20.9557 21.3938 20.8875C21.5032 20.8211 21.5935 20.7274 21.6559 20.6157C21.7184 20.504 21.7508 20.378 21.75 20.25V5.25C21.75 4.85218 21.592 4.47064 21.3107 4.18934C21.0294 3.90804 20.6478 3.75 20.25 3.75ZM20.25 19.0406L18.3375 18.075C18.2322 18.0243 18.1169 17.998 18 17.998C17.8832 17.998 17.7678 18.0243 17.6625 18.075L15 19.4156L12.3375 18.075C12.2319 18.0256 12.1166 18 12 18C11.8834 18 11.7682 18.0256 11.6625 18.075L9.00001 19.4156L6.33751 18.075C6.23222 18.0243 6.11687 17.998 6.00001 17.998C5.88316 17.998 5.7678 18.0243 5.66251 18.075L3.75001 19.0406V5.25H20.25V19.0406ZM12.75 10.5C12.75 10.3011 12.829 10.1103 12.9697 9.96967C13.1103 9.82902 13.3011 9.75 13.5 9.75H18C18.1989 9.75 18.3897 9.82902 18.5303 9.96967C18.671 10.1103 18.75 10.3011 18.75 10.5C18.75 10.6989 18.671 10.8897 18.5303 11.0303C18.3897 11.171 18.1989 11.25 18 11.25H13.5C13.3011 11.25 13.1103 11.171 12.9697 11.0303C12.829 10.8897 12.75 10.6989 12.75 10.5ZM12.75 13.5C12.75 13.3011 12.829 13.1103 12.9697 12.9697C13.1103 12.829 13.3011 12.75 13.5 12.75H18C18.1989 12.75 18.3897 12.829 18.5303 12.9697C18.671 13.1103 18.75 13.3011 18.75 13.5C18.75 13.6989 18.671 13.8897 18.5303 14.0303C18.3897 14.171 18.1989 14.25 18 14.25H13.5C13.3011 14.25 13.1103 14.171 12.9697 14.0303C12.829 13.8897 12.75 13.6989 12.75 13.5ZM6.00001 15.75H10.5C10.6989 15.75 10.8897 15.671 11.0303 15.5303C11.171 15.3897 11.25 15.1989 11.25 15V9C11.25 8.80109 11.171 8.61032 11.0303 8.46967C10.8897 8.32902 10.6989 8.25 10.5 8.25H6.00001C5.8011 8.25 5.61034 8.32902 5.46968 8.46967C5.32903 8.61032 5.25001 8.80109 5.25001 9V15C5.25001 15.1989 5.32903 15.3897 5.46968 15.5303C5.61034 15.671 5.8011 15.75 6.00001 15.75ZM6.75001 9.75H9.75001V14.25H6.75001V9.75Z" fill="#0F74FF"/>
</svg>
