<svg width="230" height="229" viewBox="0 0 230 229" fill="none" xmlns="http://www.w3.org/2000/svg">
<path d="M170.211 145.235C173.748 142.993 175.096 141.809 176.57 142.655C177.918 143.416 172.738 147.265 171.264 149.676C174.085 150.353 176.023 149.761 178.929 149.761C180.824 149.761 187.1 149.549 187.016 151.114C186.889 153.398 179.392 152.214 176.191 153.44C179.94 154.625 188.995 153.356 188.7 155.471C188.321 158.178 181.919 155.682 174.928 157.374C180.445 158.981 187.016 158.008 186.847 159.616C186.552 162.111 179.013 160.589 173.664 160.589C175.77 161.984 183.52 163.634 183.014 164.776C182.509 165.96 180.656 166.045 172.527 164.015C168.694 163.042 163.682 163.169 160.144 164.945C138.622 175.646 120.175 183.048 115.963 179.664C104.802 170.528 102.359 144.812 99.3266 135.972C97.9789 131.954 99.453 115.965 102.738 114.231C105.644 112.708 113.478 116.134 114.657 119.18C123.544 127.343 119.669 148.618 127.503 155.809C135.59 154.075 152.353 149.718 159.218 147.096C161.829 146.081 167.01 147.223 170.211 145.235Z" fill="#0F74FF"/>
<path fill-rule="evenodd" clip-rule="evenodd" d="M119.249 180.891C117.648 180.891 116.469 180.581 115.711 179.961C107.287 173.108 103.791 157.205 101.264 145.573C100.422 141.682 99.7061 138.34 98.948 136.099C97.6002 132.165 98.948 115.754 102.528 113.85C103.876 113.174 106.276 113.343 108.93 114.358C111.246 115.246 114.195 116.98 114.995 118.926C119.628 123.283 120.807 130.981 121.986 138.467C123.081 145.404 124.092 151.918 127.63 155.386C136.096 153.525 152.395 149.253 159.05 146.715C160.187 146.25 161.745 146.208 163.346 146.165C165.62 146.081 168.189 145.996 170 144.854C170.534 144.516 171.025 144.206 171.475 143.924C174.002 142.274 175.307 141.428 176.781 142.274C176.992 142.401 177.16 142.612 177.203 142.908C177.287 143.754 176.192 144.896 174.381 146.757C173.496 147.646 172.57 148.576 171.98 149.38C173.538 149.676 174.802 149.591 176.276 149.464C177.118 149.422 177.961 149.38 178.929 149.38C179.098 149.38 179.308 149.366 179.561 149.338C182.72 149.338 186.174 149.38 187.142 150.395C187.353 150.606 187.437 150.86 187.437 151.156C187.353 152.89 184.615 153.017 181.499 153.144C180.361 153.229 179.182 153.271 178.171 153.398C179.519 153.567 181.077 153.61 182.636 153.652C186.047 153.736 188.153 153.863 188.869 154.709C189.08 154.921 189.164 155.217 189.122 155.513C188.827 157.374 186.637 157.289 183.604 157.205C181.667 157.12 179.351 157.036 176.908 157.416C178.887 157.797 180.909 157.924 182.594 158.051C184.952 158.178 186.511 158.304 187.058 158.939C187.227 159.15 187.311 159.404 187.269 159.658C187.016 161.857 183.015 161.561 178.424 161.265C177.497 161.181 176.613 161.138 175.686 161.096C176.487 161.392 177.455 161.688 178.34 161.984C181.246 162.999 183.057 163.634 183.394 164.395C183.478 164.564 183.478 164.748 183.394 164.945C182.804 166.425 181.035 166.552 172.401 164.438C168.231 163.38 163.514 163.718 160.355 165.283C139.339 175.731 125.777 180.891 119.249 180.891ZM104.55 114.273C103.918 114.273 103.328 114.4 102.907 114.612C99.9167 116.177 98.4004 131.911 99.7061 135.845C100.506 138.129 101.222 141.513 102.107 145.404C104.592 156.909 108.045 172.643 116.258 179.326C118.659 181.314 128.22 180.341 159.976 164.564C163.304 162.915 168.274 162.534 172.612 163.592C180.319 165.537 182.172 165.495 182.636 164.691C182.257 164.226 179.772 163.38 178.087 162.788C176.192 162.153 174.381 161.561 173.454 160.969C173.286 160.842 173.243 160.673 173.286 160.462C173.328 160.292 173.496 160.166 173.665 160.166C175.181 160.166 176.866 160.292 178.466 160.419C182.13 160.673 186.3 160.969 186.426 159.573C186.426 159.531 186.426 159.531 186.426 159.489C186.089 159.108 184.278 158.981 182.551 158.854C180.277 158.727 177.455 158.558 174.802 157.797C174.633 157.712 174.507 157.543 174.507 157.374C174.507 157.162 174.633 156.993 174.844 156.951C178.087 156.19 181.162 156.274 183.647 156.359C186.511 156.443 188.111 156.443 188.279 155.428C188.279 155.344 188.279 155.301 188.237 155.259C187.732 154.625 184.994 154.54 182.636 154.498C180.193 154.413 177.708 154.371 176.065 153.821C175.897 153.779 175.771 153.61 175.771 153.44C175.771 153.271 175.855 153.102 176.023 153.017C177.413 152.51 179.477 152.425 181.456 152.298C183.857 152.214 186.553 152.087 186.595 151.114C186.595 151.072 186.595 151.029 186.553 150.987C185.752 150.141 181.288 150.183 179.603 150.183C179.322 150.183 179.098 150.183 178.929 150.183C177.961 150.183 177.16 150.268 176.36 150.31C174.718 150.437 173.117 150.564 171.18 150.057C171.053 150.014 170.927 149.93 170.885 149.803C170.843 149.676 170.843 149.549 170.927 149.422C171.517 148.449 172.654 147.307 173.791 146.165C174.802 145.15 176.487 143.458 176.36 142.993C175.391 142.443 174.465 142.993 171.938 144.6C171.489 144.91 170.983 145.235 170.422 145.573C168.442 146.842 165.747 146.927 163.388 147.011C161.83 147.053 160.355 147.096 159.345 147.476C152.606 150.057 136.054 154.413 127.63 156.232C127.462 156.274 127.335 156.232 127.251 156.147C123.334 152.552 122.281 145.742 121.144 138.594C120.007 131.234 118.827 123.621 114.363 119.476C114.307 119.448 114.265 119.391 114.237 119.307C113.731 117.953 111.415 116.219 108.635 115.162C107.119 114.569 105.687 114.273 104.55 114.273Z" fill="black"/>
<path d="M108.256 143.204C107.919 155.668 107.568 168.131 107.203 180.595C107.203 181.737 105.181 186.263 100.001 187.32C79.4897 191.381 60.9158 192.1 46.0061 183.936C37.8353 179.453 42.1734 165.241 43.9002 156.063C65.8435 155.682 86.3969 142.824 108.256 143.204Z" fill="#0F74FF"/>
<path fill-rule="evenodd" clip-rule="evenodd" d="M73.8455 190.662C62.6843 190.662 53.629 188.589 45.8373 184.317C38.4246 180.257 40.8253 168.836 42.7627 159.7C43.0435 158.403 43.2962 157.162 43.5208 155.978C43.5208 155.809 43.6893 155.64 43.8999 155.64C54.5135 155.471 65.0008 152.298 75.109 149.211C85.849 145.954 96.9681 142.57 108.256 142.782C108.368 142.782 108.466 142.824 108.55 142.908C108.635 142.993 108.677 143.092 108.677 143.204L107.624 180.595C107.582 181.779 105.602 186.601 100.085 187.743C90.145 189.689 81.5109 190.662 73.8455 190.662ZM44.2789 156.486C44.0543 157.557 43.8156 158.685 43.5629 159.869C41.7097 168.752 39.3511 179.791 46.2163 183.556C59.1886 190.662 75.7408 191.677 99.9163 186.897C104.886 185.924 106.782 181.61 106.782 180.595L107.834 143.585C96.7996 143.501 85.8911 146.8 75.3617 150.014C65.2956 153.06 54.8504 156.232 44.2789 156.486Z" fill="black"/>
<g opacity="0.1">
<path opacity="0.1" d="M99.5798 116.727C99.0743 117.234 98.3584 117.15 97.7266 117.234C96.2525 117.276 94.8205 117.234 93.3885 117.234C91.9143 117.234 91.4511 115.077 92.8409 114.569C93.8939 114.231 95.0311 114.443 96.084 114.316C97.1369 114.358 98.3162 114.02 99.2849 114.443C100.085 114.908 100.254 116.092 99.5798 116.727Z" fill="black"/>
</g>
<path d="M27.0952 152.637C28.0639 142.739 33.8762 122.521 42.8472 109.917C49.6282 100.442 65.5486 98.4966 69.4235 98.5812C77.9733 98.7504 87.2813 100.992 95.3258 103.826C116.974 109.748 115.921 119.561 119.333 128.781C113.984 130.769 108.972 144.558 103.96 149.761C103.118 154.117 102.57 154.286 100.001 156.443C89.0924 165.58 22.0411 202.293 27.0952 152.637Z" fill="#0F74FF"/>
<path fill-rule="evenodd" clip-rule="evenodd" d="M46.048 178.522C42.0469 178.522 38.3405 177.846 35.2238 176.154C28.3165 172.474 25.4525 164.564 26.6739 152.594C27.6426 142.866 33.3706 122.479 42.5102 109.663C49.4596 99.9347 65.8012 98.116 69.4654 98.1583C79.1104 98.3697 88.9238 101.119 95.452 103.403C113.815 108.436 116.09 116.431 118.28 124.129C118.701 125.609 119.164 127.174 119.712 128.654C119.74 128.767 119.74 128.88 119.712 128.993C119.656 129.077 119.571 129.148 119.459 129.204C116.469 130.304 113.436 135.591 110.488 140.667C108.382 144.347 106.403 147.773 104.339 149.972C103.539 154.032 102.949 154.54 100.801 156.317C100.633 156.458 100.45 156.613 100.253 156.782C96.2102 160.166 84.5857 167.314 71.4029 172.559C63.8217 175.604 54.3452 178.522 46.048 178.522ZM69.2127 99.0042C65.2958 99.0042 49.7965 100.865 43.184 110.128C34.1287 122.86 28.485 143.035 27.4742 152.679C26.337 164.268 29.0325 171.924 35.6029 175.435C38.5511 177 42.1311 177.676 46.048 177.676C65.2116 177.676 93.0935 161.688 99.7059 156.147C99.9025 155.978 100.085 155.823 100.253 155.682C102.359 153.948 102.823 153.567 103.539 149.676C103.567 149.62 103.609 149.549 103.665 149.464C105.687 147.392 107.75 143.754 109.772 140.244C112.678 135.21 115.626 130.05 118.785 128.57C118.28 127.174 117.901 125.736 117.48 124.382C115.247 116.515 113.141 109.113 95.1993 104.207C88.7132 101.923 78.984 99.1734 69.4233 99.0042C69.3672 99.0042 69.297 99.0042 69.2127 99.0042Z" fill="black"/>
<path d="M96.2521 87.9224C94.1883 93.9286 92.6721 100.189 91.6192 106.491C91.5349 106.998 91.4507 107.548 91.1559 107.971C90.8189 108.436 90.3135 108.648 89.8081 108.859C86.4387 110.171 82.5639 110.34 79.3208 108.732C76.0777 107.125 73.6349 103.615 74.0561 99.5964C76.4568 94.7322 80.2053 88.0916 83.5747 80.2667C87.4074 83.016 91.5349 85.3423 96.2521 87.9224Z" fill="white"/>
<path fill-rule="evenodd" clip-rule="evenodd" d="M84.4595 110.34C82.5642 110.34 80.7531 109.917 79.1105 109.113C75.4463 107.294 73.2141 103.445 73.6352 99.5541C73.6352 99.4977 73.6493 99.4413 73.6774 99.3849C74.3934 97.9891 75.1936 96.3818 76.0781 94.7322C78.1839 90.6717 80.7952 85.6384 83.1959 80.0975C83.2381 79.9706 83.3644 79.886 83.4487 79.8437C83.575 79.8437 83.7014 79.8437 83.8277 79.9283C87.4919 82.5507 91.3668 84.7924 96.463 87.5417C96.6315 87.6263 96.7157 87.8378 96.6315 88.0493C94.6098 94.0555 93.0515 100.273 92.0407 106.533C91.9564 107.083 91.8722 107.717 91.4931 108.225C91.1141 108.732 90.5244 109.029 89.9769 109.24C88.1658 109.959 86.2705 110.34 84.4595 110.34ZM74.4776 99.681C74.0564 103.784 76.7098 106.998 79.4896 108.352C82.4378 109.832 86.1442 109.875 89.6821 108.479C90.1032 108.31 90.5244 108.098 90.8192 107.717C91.0719 107.379 91.1562 106.914 91.2404 106.406C92.2091 100.231 93.7675 94.0555 95.747 88.0916C90.9877 85.5115 87.2392 83.3966 83.7435 80.9011C81.3849 86.2728 78.8578 91.1793 76.7941 95.1129C75.9517 96.7625 75.1515 98.3274 74.4776 99.681Z" fill="black"/>
<path d="M81.0901 109.367C78.8999 111.355 76.7098 113.343 74.1406 115.331C72.5402 109.578 70.9818 103.657 70.8555 97.6507C72.0769 97.3546 74.7724 96.1703 75.9517 95.8319C75.4042 96.974 74.5618 97.9891 74.6461 98.4121C74.6882 98.6658 78.8578 106.152 81.0901 109.367Z" fill="white"/>
<path fill-rule="evenodd" clip-rule="evenodd" d="M74.1406 115.754C74.0844 115.754 74.0423 115.754 74.0142 115.754C73.8879 115.711 73.7615 115.585 73.7194 115.458C72.2453 110.044 70.5606 103.911 70.4763 97.693C70.4342 97.4815 70.5606 97.3123 70.7712 97.27C71.3608 97.1008 72.3295 96.7202 73.2561 96.3395C74.2669 95.9588 75.2356 95.5782 75.8674 95.409C76.0359 95.3667 76.2043 95.4513 76.2886 95.5781C76.3728 95.6627 76.4149 95.8742 76.3307 96.0011C76.1201 96.5087 75.8253 96.9739 75.5726 97.3969C75.362 97.693 75.1093 98.1583 75.0672 98.3274C75.4041 99.0888 79.2789 106.025 81.4269 109.155C81.5533 109.325 81.5533 109.536 81.3848 109.705C79.2368 111.651 76.9625 113.681 74.3933 115.669C74.309 115.726 74.2248 115.754 74.1406 115.754ZM71.3187 97.9891C71.445 103.784 72.9613 109.494 74.3933 114.612C76.6255 112.878 78.605 111.059 80.5424 109.325C78.3944 106.152 74.309 98.9196 74.2248 98.4966C74.1406 98.0737 74.4354 97.6084 74.8566 96.9317C74.9408 96.8189 75.025 96.692 75.1093 96.551C74.646 96.7202 74.0984 96.9317 73.593 97.1431C72.7086 97.4815 71.9083 97.7776 71.3187 97.9891Z" fill="black"/>
<path d="M95.3257 103.826C93.641 108.775 91.7457 111.651 89.3029 117.953C86.2704 114.527 84.5857 111.651 83.1958 109.79C86.6494 108.436 90.6506 103.995 92.7565 100.611C93.641 101.457 94.6518 103.022 95.3257 103.826Z" fill="white"/>
<path fill-rule="evenodd" clip-rule="evenodd" d="M89.3029 118.376C89.1765 118.376 89.0502 118.334 88.9659 118.207C86.8179 115.796 85.3859 113.639 84.2066 111.947C83.7012 111.228 83.2801 110.594 82.8589 110.044C82.8168 109.959 82.7746 109.832 82.8168 109.705C82.8589 109.578 82.9431 109.452 83.0695 109.409C86.2704 108.14 90.1874 103.911 92.3775 100.4C92.4617 100.315 92.5459 100.231 92.6723 100.231C92.7986 100.189 92.925 100.231 93.0092 100.315C93.5989 100.865 94.2306 101.669 94.7361 102.388C95.073 102.853 95.3678 103.234 95.6205 103.53C95.7469 103.657 95.789 103.826 95.7048 103.953C94.8203 106.618 93.8516 108.648 92.7986 110.974C91.8721 112.92 90.8191 115.162 89.6819 118.122C89.6398 118.249 89.5135 118.334 89.345 118.376C89.345 118.376 89.331 118.376 89.3029 118.376ZM83.8697 110.001C84.1645 110.424 84.5015 110.932 84.8805 111.482C85.9756 113.047 87.2812 114.95 89.1344 117.15C90.2295 114.527 91.1561 112.455 92.0405 110.636C93.0514 108.352 93.9779 106.406 94.8624 103.911C94.6097 103.615 94.357 103.276 94.1043 102.896C93.6831 102.346 93.2198 101.753 92.7986 101.288C90.6085 104.672 87.0285 108.521 83.8697 110.001Z" fill="black"/>
<g opacity="0.1">
<path opacity="0.1" d="M74.0985 114.231C74.3933 113.85 74.8987 113.766 75.3199 113.47C75.741 113.089 77.0046 112.455 78.0996 111.524C78.7735 110.974 79.5316 110.467 80.2898 110.001C80.753 109.705 81.3427 109.536 81.8902 109.578C82.522 109.705 83.1116 110.001 83.617 110.382C83.954 110.678 84.1646 111.101 84.4594 111.482C85.3018 112.708 86.2283 113.893 87.197 114.992C87.9973 115.965 88.2079 116.219 88.7554 116.727C89.0502 117.023 89.4293 117.15 89.5978 117.53C90.2295 118.503 88.9239 119.687 88.0394 118.926C85.9756 117.403 83.2801 113.47 82.3535 112.328C82.3254 112.3 82.2974 112.285 82.2693 112.285C82.1429 112.201 81.9745 112.116 81.8481 112.074C81.82 112.074 81.806 112.074 81.806 112.074C81.7498 112.074 81.6937 112.06 81.6375 112.032C81.6094 112.032 81.5954 112.032 81.5954 112.032C81.4831 112.06 81.3848 112.102 81.3006 112.159C81.2444 112.187 81.2023 112.215 81.1742 112.243C80.7109 112.539 80.2476 112.835 79.7843 113.174C79.1947 113.639 78.5629 114.104 77.889 114.443C77.2994 114.739 76.7098 114.992 76.1201 115.289C75.6989 115.458 75.2778 115.754 74.8145 115.796C74.0563 115.838 73.593 114.823 74.0985 114.231Z" fill="black"/>
</g>
<path d="M105.392 147.603C105.364 147.603 105.35 147.603 105.35 147.603C105.097 147.561 104.971 147.35 104.971 147.138C105.56 141.682 106.487 136.183 107.666 130.811C107.708 130.6 107.919 130.431 108.13 130.473C108.382 130.558 108.509 130.769 108.466 130.981C107.287 136.31 106.403 141.809 105.813 147.223C105.771 147.434 105.602 147.603 105.392 147.603Z" fill="black"/>
<path d="M102.528 57.8493C99.2847 65.6319 94.02 72.5263 87.4076 77.6866C85.2175 79.4207 82.8589 80.9434 80.2055 81.7894C78.8156 82.2546 77.173 82.4661 75.9516 81.6202C74.8565 80.8588 74.4353 79.3784 74.0984 78.0672C73.6772 76.4317 73.256 74.7963 72.8349 73.1608C72.0767 70.2 71.3186 67.1546 71.4871 64.1092C71.7398 58.23 75.5304 52.816 80.6687 49.9821C85.8071 47.1482 92.0826 46.7675 97.7264 48.3325C99.032 48.7132 100.338 49.1784 101.433 49.9821C102.486 50.828 103.328 52.0546 103.454 53.4081C103.539 54.677 103.328 55.9882 102.528 57.8493Z" fill="#2F2E41"/>
<path fill-rule="evenodd" clip-rule="evenodd" d="M77.973 82.593C77.1025 82.593 76.3584 82.3815 75.7407 81.9585C74.5193 81.1126 74.0981 79.6745 73.677 78.1518L72.4555 73.2454C71.6974 70.2846 70.8972 67.2392 71.0657 64.1092C71.3184 58.3146 75.0247 52.6468 80.4579 49.6437C85.4278 46.8521 91.7454 46.2599 97.8104 47.9095C98.9897 48.2479 100.464 48.7132 101.685 49.686C102.949 50.6588 103.749 52.0123 103.875 53.4081C103.96 54.8039 103.707 56.1574 102.907 58.0185C99.6635 65.8857 94.3567 72.7801 87.66 78.0249C84.9645 80.1398 82.648 81.451 80.3315 82.17C79.4611 82.452 78.6749 82.593 77.973 82.593ZM91.0715 47.8249C87.4073 47.8249 83.8694 48.6709 80.8791 50.3627C75.6986 53.2389 72.1607 58.6529 71.908 64.1515C71.7395 67.1546 72.4977 70.1577 73.2558 73.0339L74.5193 77.9826C74.8562 79.3361 75.2353 80.605 76.204 81.2818C77.0885 81.8739 78.3941 81.9162 80.0788 81.4087C82.3111 80.6896 84.5433 79.3784 87.1546 77.3482C93.7671 72.2303 98.9475 65.4204 102.148 57.6801C102.864 55.9882 103.117 54.7193 103.033 53.4504C102.949 52.3084 102.275 51.1664 101.18 50.3204C100.043 49.4745 98.6948 49.0515 97.5998 48.7555C95.4097 48.121 93.2195 47.8249 91.0715 47.8249Z" fill="black"/>
<path d="M105.518 63.3056C105.265 67.6622 106.065 71.9765 106.065 76.3331C106.108 80.6896 105.139 85.2577 101.938 88.5992C99.1582 91.5599 94.6937 93.2095 90.3556 92.9134C86.0175 92.6174 81.9321 90.3756 79.7841 87.0765C77.7203 83.9888 77.3412 77.2213 77.0464 73.8375C75.1511 74.1336 73.0031 73.5415 71.8238 72.1457C70.6867 70.7922 70.6867 68.6773 72.0344 67.4084C73.3822 66.0972 75.0669 65.928 77.0043 67.7891C76.878 64.9975 77.3413 62.2482 77.5518 61.0216C78.1415 57.5955 78.2257 52.5622 80.5001 51.0818C81.7636 50.2359 84.4591 49.5168 85.9754 49.0938C88.5867 48.3748 92.2509 50.0667 94.9885 50.0667C97.7262 50.0244 100.506 51.3779 102.696 52.7737C105.349 54.4655 105.686 60.0487 105.518 63.3056Z" fill="white"/>
<path fill-rule="evenodd" clip-rule="evenodd" d="M91.3665 93.3364C91.0295 93.3364 90.6785 93.3364 90.3135 93.3364C85.849 92.998 81.6794 90.714 79.405 87.288C77.5097 84.4541 77.0465 78.744 76.7516 75.0219C76.7236 74.7681 76.6955 74.5284 76.6674 74.3028C74.6879 74.5143 72.6662 73.7529 71.529 72.4417C70.1813 70.8345 70.2655 68.4658 71.7396 67.07C72.6241 66.2664 74.3509 65.209 76.541 66.8585C76.541 64.4476 76.9201 62.1636 77.1307 61.0216V60.937C77.257 60.2179 77.3413 59.4566 77.4676 58.6529C77.8467 55.523 78.31 52.0123 80.2474 50.7434C81.553 49.8975 84.1643 49.1784 85.7227 48.7555L85.8912 48.7132C87.5337 48.2479 89.4712 48.6709 91.3665 49.0938C92.6721 49.3899 93.8935 49.6437 94.9886 49.6437C97.3472 49.6014 100.001 50.5319 102.949 52.4353C106.234 54.5501 105.981 61.8675 105.939 63.3479C105.771 65.7588 105.981 68.212 106.192 70.623C106.36 72.484 106.487 74.4297 106.487 76.3331C106.487 81.7048 105.097 85.9345 102.275 88.8952C99.5794 91.6868 95.494 93.3364 91.3665 93.3364ZM77.0465 73.4146C77.1588 73.4146 77.243 73.4428 77.2992 73.4992C77.4255 73.5838 77.4676 73.6683 77.4676 73.7952C77.4957 74.1336 77.5238 74.5143 77.5519 74.9373C77.8467 78.3633 78.31 84.158 80.121 86.8227C82.2269 90.0373 86.186 92.1944 90.3977 92.4905C94.6095 92.7866 98.9055 91.1793 101.643 88.3031C104.339 85.5538 105.686 81.4933 105.686 76.3331C105.686 74.472 105.518 72.5263 105.35 70.7076C105.139 68.2543 104.97 65.7588 105.097 63.3056C105.307 59.4989 104.718 54.5924 102.486 53.1543C99.7058 51.3356 97.1787 50.4473 94.9886 50.4896C93.8093 50.4896 92.4615 50.1936 91.198 49.8975C89.3869 49.5168 87.5337 49.0938 86.1017 49.5168L85.9333 49.5591C84.417 49.9821 81.89 50.6588 80.7107 51.4202C79.0681 52.4776 78.6469 55.819 78.2679 58.7798C78.1836 59.5835 78.0994 60.3448 77.973 61.0639V61.1485C77.7625 62.4174 77.2992 65.0821 77.4255 67.7468C77.4255 67.916 77.3413 68.0852 77.1728 68.1697C77.0043 68.212 76.8359 68.212 76.7095 68.0852C75.1512 66.5625 73.677 66.4356 72.3293 67.7045C71.1921 68.8042 71.1079 70.623 72.1608 71.8919C73.1716 73.1185 75.109 73.7106 77.0043 73.4146C77.0324 73.4146 77.0465 73.4146 77.0465 73.4146Z" fill="black"/>
<path d="M71.7396 59.9218C69.381 52.816 75.109 42.1148 94.4832 40.5922C109.561 39.4501 112.678 46.6406 112.467 49.686C112.341 51.5894 110.53 53.2812 108.845 52.7737C111.33 53.7465 112.72 57.1303 111.751 59.8373C110.783 62.5443 107.624 63.9824 105.181 62.8826C103.623 62.1636 102.528 60.5986 101.011 59.0336C100.169 60.8101 99.453 61.6137 97.6841 61.3599C95.9152 61.0639 93.2196 58.1877 92.9248 56.242C92.1667 58.1454 89.8502 58.8221 87.997 58.0608C85.4279 57.0034 84.754 55.6922 83.8274 53.7465C83.1535 55.6076 82.1006 57.5532 80.0789 58.9067C77.0043 60.9793 72.4135 61.9098 71.7396 59.9218Z" fill="#2F2E41"/>
<path fill-rule="evenodd" clip-rule="evenodd" d="M106.95 63.6863C106.276 63.6863 105.602 63.5171 105.013 63.2633C103.749 62.6712 102.78 61.6137 101.77 60.4717C101.545 60.2461 101.334 60.0064 101.138 59.7527C100.295 61.2754 99.453 62.0367 97.642 61.7406C95.9573 61.4868 93.6408 59.2451 92.7985 57.2994C91.7034 58.6529 89.6818 59.1605 87.8286 58.4415C85.5121 57.5109 84.6276 56.2843 83.8695 54.8039C83.2377 56.242 82.2269 58.0185 80.2895 59.2874C77.7625 60.9793 74.393 61.8675 72.6241 61.2331C71.9923 61.0216 71.529 60.5986 71.3606 60.0487C70.2655 56.8342 70.8552 53.1543 72.961 49.9821C75.0669 46.8098 80.6686 41.2689 94.441 40.1692C103.749 39.4924 108.298 41.9457 110.488 44.1028C112.425 46.0485 112.973 48.2902 112.889 49.7283C112.804 50.9126 112.13 52.0546 111.162 52.7314C110.881 52.9288 110.6 53.0698 110.319 53.1543C112.173 54.677 113.015 57.5532 112.13 59.9641C111.625 61.4445 110.446 62.6289 109.014 63.2633C108.34 63.5171 107.624 63.6863 106.95 63.6863ZM101.011 58.6106C101.138 58.6106 101.222 58.6529 101.306 58.7375C101.671 59.1323 102.022 59.513 102.359 59.8796C103.37 61.0216 104.254 61.9944 105.392 62.502C106.36 62.9672 107.54 62.9672 108.677 62.502C109.94 61.9521 110.909 60.937 111.372 59.7104C112.257 57.2148 110.951 54.0426 108.719 53.1543C108.508 53.0698 108.382 52.8583 108.466 52.6468C108.55 52.4353 108.761 52.3084 108.972 52.393C109.519 52.5199 110.109 52.4353 110.656 52.0546C111.457 51.5048 111.962 50.5742 112.046 49.6437C112.13 48.4171 111.625 46.4714 109.898 44.7373C107.834 42.6647 103.496 40.3384 94.5253 41.0151C81.0897 42.0726 75.6987 47.402 73.6349 50.4473C71.6975 53.4081 71.15 56.8342 72.1187 59.795C72.231 60.1051 72.4837 60.3307 72.8768 60.4717C74.393 60.9793 77.5097 60.1333 79.8262 58.5684C81.9742 57.1726 82.9008 55.0577 83.4483 53.6196C83.4905 53.4504 83.6589 53.3658 83.8274 53.3235C83.9538 53.3235 84.1222 53.4081 84.2065 53.5773C85.0909 55.3538 85.6806 56.665 88.1655 57.6801C89.7239 58.2723 91.8298 57.807 92.5457 56.1151C92.5879 55.9459 92.7985 55.819 92.9669 55.8613C93.1775 55.8613 93.3039 55.9882 93.346 56.1997C93.5987 57.9339 96.1679 60.6832 97.7683 60.937C99.1582 61.1485 99.7479 60.6832 100.632 58.8644C100.674 58.7375 100.801 58.6529 100.927 58.6106C100.955 58.6106 100.983 58.6106 101.011 58.6106Z" fill="black"/>
<path d="M100.338 70.2C100.873 70.2 101.307 69.7644 101.307 69.2272C101.307 68.6899 100.873 68.2543 100.338 68.2543C99.8028 68.2543 99.3691 68.6899 99.3691 69.2272C99.3691 69.7644 99.8028 70.2 100.338 70.2Z" fill="black"/>
<path d="M86.6494 70.2846C87.1844 70.2846 87.6181 69.849 87.6181 69.3118C87.6181 68.7745 87.1844 68.3389 86.6494 68.3389C86.1144 68.3389 85.6807 68.7745 85.6807 69.3118C85.6807 69.849 86.1144 70.2846 86.6494 70.2846Z" fill="black"/>
<path d="M90.9456 86.5689C89.3452 86.5689 87.7868 85.7653 86.8181 84.4541C86.6917 84.2426 86.7339 83.9888 86.9023 83.8619C87.1129 83.735 87.3656 83.7773 87.492 83.9465C88.4607 85.3 90.2296 85.9768 91.788 85.6384C92.0407 85.5538 92.2513 85.723 92.2934 85.9345C92.3355 86.1459 92.2092 86.3997 91.9986 86.442C91.6616 86.5266 91.3106 86.5689 90.9456 86.5689Z" fill="black"/>
<path d="M93.5987 81.2818C93.2618 81.2818 92.9389 81.2536 92.63 81.1972C91.5771 80.9857 90.7347 80.3513 90.2293 79.5053C90.1029 79.2938 90.1872 79.0401 90.3978 78.9132C90.6083 78.8286 90.8611 78.8709 90.9453 79.0824C91.3243 79.7168 91.9982 80.1821 92.7985 80.3513C93.5004 80.5205 94.3007 80.4641 95.1992 80.1821C95.494 80.0975 95.8309 79.9706 96.0415 79.7168C96.2942 79.4207 96.4206 78.9555 96.3363 78.4056C96.2942 77.9826 96.0836 77.5597 95.9152 77.0944L95.8309 76.8829C94.778 74.1759 94.2726 71.2151 94.4832 68.2543C94.4832 68.0429 94.6938 67.8737 94.9044 67.8737C95.1571 67.8737 95.3255 68.0852 95.2834 68.3389C95.1149 71.1305 95.5782 73.9644 96.5891 76.5445L96.6733 76.756C96.8839 77.2636 97.0945 77.7712 97.1787 78.321C97.2629 79.0824 97.0945 79.8014 96.6312 80.309C96.2942 80.6473 95.8309 80.8588 95.4519 80.9857C94.8061 81.1831 94.1883 81.2818 93.5987 81.2818Z" fill="black"/>
<path d="M77.2153 70.5384C77.0047 70.5384 76.7941 70.3692 76.7941 70.1577C76.6677 69.1849 76.6256 68.6773 76.5835 67.7045C76.5835 67.493 76.752 67.2815 76.9626 67.2815C77.2153 67.2392 77.3837 67.4084 77.4258 67.6622C77.468 68.5927 77.5101 69.1003 77.5943 70.0731C77.6364 70.2846 77.468 70.4961 77.2574 70.5384C77.2293 70.5384 77.2153 70.5384 77.2153 70.5384Z" fill="black"/>
<g opacity="0.1">
<path opacity="0.1" d="M104.381 64.5322C103.665 64.363 103.118 63.8132 102.528 63.3479C101.882 62.7557 101.264 62.1495 100.675 61.5291C100.45 61.7829 100.211 62.0085 99.9587 62.2059C98.9479 62.8403 97.6844 62.7557 96.6314 62.2905C95.6206 61.8252 95.2415 61.4868 94.694 61.0216C94.1465 60.5563 93.5989 60.0487 93.1778 59.4566C92.9251 59.8796 92.5881 60.2179 92.2091 60.514C91.7036 60.8947 91.0719 61.1062 90.398 61.0639C90.4542 61.0639 90.4822 61.0639 90.4822 61.0639C90.4261 61.0921 90.3699 61.1062 90.3138 61.1062C89.5135 61.0639 88.7554 60.8101 87.9973 60.514C86.9444 60.091 85.8914 59.4566 85.0912 58.6106C84.5436 58.0608 84.0804 57.4686 83.7855 56.7919C83.7013 56.5804 83.7434 56.7496 83.8276 56.8342C83.6873 56.5804 83.5609 56.3266 83.4486 56.0728C83.3644 55.9036 83.2801 55.7345 83.3222 55.5653C83.3644 55.1423 83.7013 54.9308 83.9961 54.9308C84.2488 55.2128 84.5015 55.4807 84.7542 55.7345C84.7964 55.819 84.8385 55.9036 84.9648 56.1151C85.021 56.1997 85.0771 56.2984 85.1333 56.4112C85.3018 56.3266 85.5124 56.242 85.7651 56.2843C86.6074 56.5804 86.4389 56.7073 86.9444 56.9188C88.2079 57.6801 88.5869 57.807 89.682 58.0608C89.9768 58.0608 90.1874 58.23 90.3138 58.3992C90.6086 58.3569 91.114 58.23 91.4931 58.0608C91.5352 58.0608 91.6194 58.0185 91.6615 57.9762C91.8019 57.9198 91.9283 57.9057 92.0406 57.9339C92.0687 57.9057 92.1108 57.8916 92.1669 57.8916C92.1669 57.8916 92.1669 57.8775 92.1669 57.8493C92.1669 57.8211 92.1669 57.807 92.1669 57.807C92.1669 57.7506 92.1669 57.6942 92.1669 57.6378C92.1248 57.1726 92.546 56.7496 92.9672 56.8342C93.3884 56.8342 93.6832 57.2571 93.6832 57.6801C93.7674 57.8211 93.8657 57.9621 93.978 58.1031C94.3571 58.5683 94.8204 58.9913 95.2836 59.372C95.3679 59.4566 95.5785 59.6681 95.6206 59.7104C95.6487 59.7104 95.6767 59.7245 95.7048 59.7527C96.2102 60.1333 97.1789 60.7255 98.1055 60.8947C98.3302 60.8947 98.5407 60.8806 98.7373 60.8524C98.7935 60.8242 98.8636 60.796 98.9479 60.7678C98.976 60.7678 99.004 60.7537 99.0321 60.7255C99.0883 60.6973 99.1444 60.655 99.2006 60.5986C99.2287 60.5704 99.2427 60.5563 99.2427 60.5563C99.2708 60.5281 99.2989 60.4999 99.3269 60.4717C99.4954 60.4435 99.6639 60.3871 99.8324 60.3025C99.7902 59.5412 100.422 58.7375 101.264 59.0336C101.854 59.2451 102.233 59.9218 102.781 60.3025C103.497 61.0216 104.339 61.656 105.139 62.3328C106.108 63.0941 105.602 64.6591 104.381 64.5322Z" fill="black"/>
</g>
<g opacity="0.1">
<path opacity="0.1" d="M72.2029 60.8524C72.4135 60.3448 72.8768 60.4717 73.2137 60.5563C73.7612 60.6409 74.3088 60.6832 74.8142 60.7678C75.2354 60.8101 75.6144 60.8947 75.9935 60.937C76.1198 60.937 76.2041 60.937 75.9935 60.937C76.2041 60.937 76.4146 60.937 76.6252 60.9793C76.6814 60.8383 76.7656 60.7255 76.8779 60.6409C77.3412 60.2602 77.9309 60.7255 77.7624 61.3599C77.6361 61.8675 77.4676 62.3328 77.4255 62.8403C77.3834 63.5594 77.257 64.7014 76.4146 64.5745C76.2462 64.5322 76.1619 64.4053 76.0356 64.2784C76.0777 64.3207 75.6986 63.9401 75.6144 63.8978C75.2354 63.5594 74.4772 63.0095 73.7612 62.502C73.3681 62.2482 72.975 62.0226 72.5819 61.8252C72.5539 61.797 72.5258 61.7829 72.4977 61.7829C72.4696 61.7547 72.4275 61.7406 72.3714 61.7406C72.1186 61.5714 72.0344 61.1908 72.2029 60.8524Z" fill="black"/>
</g>
<g opacity="0.1">
<path opacity="0.1" d="M80.1632 88.43C80.6264 88.9798 81.174 89.4451 81.8057 89.8258C81.8057 89.854 81.8198 89.8822 81.8479 89.9104C81.8479 89.9104 81.8619 89.9104 81.89 89.9104C83.1114 90.714 84.5434 91.3485 85.8911 91.856C86.1439 91.9688 86.4106 92.0816 86.6914 92.1944C86.6914 92.1944 86.9441 92.279 87.2389 92.3636C87.7864 92.5328 90.6083 92.702 94.4832 92.5751C94.3989 92.8711 94.1041 94.0978 94.0199 94.3515C93.1775 97.6507 92.7563 99.258 92.7563 99.4695C92.7142 100.4 92.7984 101.077 92.293 101.711C91.9561 102.134 91.4928 102.388 91.1559 102.473C90.9874 102.346 90.861 102.134 90.6926 101.965C89.8502 101.175 89.0079 100.358 88.1655 99.5118C84.9224 96.2972 82.1006 93.0403 79.6577 89.8681C79.0681 89.3605 79.4893 88.3877 80.1632 88.43Z" fill="black"/>
</g>
<path d="M107.414 61.3599C106.613 61.3599 105.813 61.1062 105.055 60.6409C104.044 60.0487 103.286 59.1605 102.612 58.3569C102.57 58.3146 102.57 58.23 102.654 58.1877C102.696 58.1031 102.781 58.1454 102.823 58.1877C103.497 58.949 104.255 59.8373 105.181 60.3871C106.192 61.0216 107.287 61.233 108.214 60.9793C108.298 60.937 108.382 60.9793 108.382 61.0639C108.424 61.1485 108.382 61.2331 108.298 61.2331C108.017 61.3176 107.722 61.3599 107.414 61.3599Z" fill="black"/>
<path d="M69.5494 108.056C69.5073 108.056 69.4231 108.013 69.4231 107.971C68.5386 105.687 68.1595 103.149 68.2859 100.738C68.2859 100.654 68.328 100.569 68.4122 100.569C68.4965 100.611 68.5386 100.654 68.5386 100.738C68.4544 103.149 68.8334 105.603 69.6758 107.844C69.7179 107.929 69.6758 108.013 69.5915 108.056C69.5915 108.056 69.5775 108.056 69.5494 108.056Z" fill="black"/>
<path d="M66.3068 104.376C66.2226 104.376 66.1805 104.334 66.1805 104.249L65.7593 100.865C65.7593 100.781 65.8014 100.738 65.8856 100.696C65.9277 100.696 66.012 100.738 66.012 100.823L66.4332 104.207C66.4753 104.291 66.391 104.376 66.3068 104.376Z" fill="black"/>
<path d="M125.398 124.636C120.639 130.981 118.196 138.636 114.447 145.531C113.563 147.138 112.426 148.872 110.615 149.338C109.014 149.718 107.161 148.915 106.403 147.434C105.813 146.292 105.939 144.896 106.445 143.67C106.908 142.485 107.708 141.428 108.509 140.413C113.015 134.449 117.227 128.274 121.018 121.887C122.492 122.775 123.966 123.621 125.398 124.636Z" fill="white"/>
<path fill-rule="evenodd" clip-rule="evenodd" d="M109.772 149.845C108.256 149.845 106.74 148.999 106.066 147.646C105.476 146.461 105.476 144.981 106.066 143.543C106.529 142.316 107.329 141.259 108.13 140.244L108.172 140.159C112.678 134.238 116.89 128.02 120.681 121.675C120.807 121.464 121.06 121.422 121.228 121.506C122.702 122.394 124.218 123.283 125.608 124.298C125.693 124.382 125.777 124.467 125.777 124.594C125.805 124.707 125.777 124.805 125.693 124.89C122.702 128.866 120.638 133.476 118.575 137.96C117.395 140.54 116.174 143.204 114.784 145.742C113.858 147.434 112.678 149.211 110.699 149.718C110.39 149.803 110.081 149.845 109.772 149.845ZM121.186 122.437C117.395 128.697 113.268 134.83 108.846 140.667L108.761 140.751C108.045 141.724 107.287 142.739 106.824 143.839C106.318 145.066 106.318 146.334 106.782 147.265C107.414 148.534 109.098 149.253 110.488 148.915C112.131 148.492 113.226 146.884 114.068 145.362C115.416 142.824 116.637 140.159 117.817 137.579C119.838 133.222 121.902 128.697 124.766 124.721C123.629 123.917 122.365 123.156 121.186 122.437Z" fill="black"/>
<path d="M128.472 123.198C128.641 124.213 128.304 125.313 127.63 126.117C127.419 126.413 127.124 126.666 126.745 126.751C126.408 126.836 126.029 126.751 125.692 126.666C123.46 126.032 121.523 124.721 119.627 123.41C119.08 123.029 118.532 122.648 118.195 122.056C117.943 121.633 117.816 121.168 117.816 120.66C117.816 119.307 118.911 117.869 120.343 117.869C121.102 117.869 121.775 118.207 122.407 118.588C124.176 119.575 125.875 120.674 127.503 121.887C128.093 122.31 128.683 122.86 128.472 123.198Z" fill="#2F2E41"/>
<path fill-rule="evenodd" clip-rule="evenodd" d="M126.451 127.216C126.156 127.216 125.861 127.132 125.566 127.089C123.25 126.413 121.186 125.017 119.375 123.748C118.828 123.367 118.196 122.944 117.817 122.31C117.564 121.845 117.396 121.252 117.396 120.66C117.396 119.138 118.617 117.488 120.344 117.446C121.186 117.446 121.944 117.826 122.618 118.207C124.387 119.222 126.114 120.322 127.756 121.548C128.22 121.929 129.146 122.606 128.894 123.283C129.02 124.382 128.683 125.524 127.967 126.413C127.63 126.807 127.265 127.061 126.872 127.174C126.732 127.202 126.591 127.216 126.451 127.216ZM120.344 118.292C119.164 118.292 118.238 119.56 118.238 120.66C118.238 121.125 118.364 121.506 118.533 121.845C118.828 122.352 119.375 122.69 119.838 123.071C121.692 124.34 123.587 125.651 125.819 126.286C126.114 126.37 126.409 126.413 126.661 126.37C126.886 126.314 127.111 126.145 127.335 125.863C127.925 125.144 128.178 124.171 128.051 123.283C128.051 123.198 128.065 123.113 128.093 123.029C128.051 122.944 127.883 122.733 127.251 122.225C125.651 121.041 123.966 119.941 122.239 118.968C121.607 118.588 120.976 118.292 120.344 118.292Z" fill="black"/>
<path fill-rule="evenodd" clip-rule="evenodd" d="M128.851 80.1821C137.485 78.1095 147.13 82.0008 152.858 88.5569C158.628 95.1129 160.355 104.63 157.323 112.666C155.301 117.911 149.531 123.621 140.054 125.355C133.442 126.582 126.535 124.255 121.228 120.28C117.016 117.15 113.647 112.962 112.004 108.14C110.319 103.318 107.54 85.3 128.851 80.1821ZM129.778 120.745C141.444 124.509 152.437 117.065 153.574 107.844C154.417 100.865 152.1 95.0283 150.752 93.2095C148.478 90.1218 143.003 84.2003 135.379 84.1157C126.114 83.9888 120.722 88.5992 118.406 91.8983C116.09 95.2398 115.037 99.3426 115.5 103.276C116.426 110.805 122.239 118.334 129.778 120.745Z" fill="white"/>
<path fill-rule="evenodd" clip-rule="evenodd" d="M136.432 126.117C131.21 126.117 125.735 124.213 120.975 120.618C116.469 117.234 113.226 112.962 111.583 108.267C110.404 104.799 109.309 97.1431 112.931 90.5871C115.837 85.2154 121.144 81.6202 128.725 79.7591C137.148 77.7712 146.962 81.1549 153.195 88.2608C159.05 94.986 160.819 104.587 157.702 112.793C155.764 117.869 150.163 123.959 140.139 125.778C138.931 126.004 137.696 126.117 136.432 126.117ZM133.695 80.0552C132.094 80.0552 130.494 80.2244 128.935 80.605C121.565 82.3815 116.427 85.8499 113.647 90.9678C110.193 97.3123 111.246 104.672 112.383 108.013C113.942 112.497 117.143 116.727 121.481 119.941C127.209 124.255 133.947 126.074 140.012 124.975C149.657 123.198 155.091 117.361 156.944 112.497C159.934 104.587 158.207 95.2821 152.563 88.8106C147.678 83.2698 140.518 80.0552 133.695 80.0552ZM136.011 122.141C133.905 122.141 131.757 121.845 129.651 121.168C122.155 118.715 116.047 111.228 115.079 103.318C114.615 99.3003 115.711 95.0283 118.069 91.6868C119.375 89.7835 124.597 83.5658 135.379 83.6927C143.466 83.7773 149.068 90.2064 151.089 92.9557C152.648 95.0706 154.796 100.992 153.995 107.887C153.448 112.328 150.71 116.431 146.499 119.138C143.382 121.125 139.76 122.141 136.011 122.141ZM129.904 120.364C135.464 122.141 141.36 121.422 146.035 118.418C150.036 115.838 152.648 111.989 153.153 107.802C153.995 100.908 151.679 95.1552 150.415 93.421C148.478 90.7986 143.087 84.6233 135.379 84.5387C135.267 84.5387 135.169 84.5387 135.085 84.5387C124.892 84.5387 120.007 90.3333 118.743 92.1521C116.511 95.3667 115.458 99.3849 115.921 103.234C116.848 110.847 122.702 118.038 129.904 120.364Z" fill="black"/>
<path d="M121.439 128.527C121.383 128.527 121.34 128.499 121.312 128.443L120.007 125.947C119.965 125.905 120.007 125.82 120.091 125.778C120.133 125.736 120.217 125.778 120.259 125.82L121.565 128.316C121.607 128.358 121.565 128.443 121.523 128.485C121.495 128.513 121.467 128.527 121.439 128.527Z" fill="black"/>
<path d="M120.302 131.404C120.259 131.404 120.175 131.361 120.175 131.277C119.712 130.092 119.207 128.908 118.701 127.724C118.659 127.639 118.701 127.555 118.785 127.555C118.87 127.512 118.912 127.555 118.954 127.597C119.459 128.781 119.965 130.008 120.428 131.192C120.47 131.277 120.428 131.361 120.344 131.361C120.316 131.39 120.302 131.404 120.302 131.404Z" fill="black"/>
<path d="M118.954 134.407C118.912 134.407 118.827 134.364 118.827 134.322C118.406 132.926 117.901 131.531 117.227 130.177C117.185 130.135 117.227 130.05 117.311 130.008C117.353 129.966 117.438 130.008 117.48 130.05C118.154 131.404 118.701 132.799 119.08 134.238C119.122 134.322 119.08 134.407 118.996 134.407C118.996 134.407 118.982 134.407 118.954 134.407Z" fill="black"/>
<path d="M117.437 137.156C117.353 137.156 117.311 137.114 117.311 137.071C116.806 135.591 116.258 134.068 115.668 132.63C115.626 132.546 115.668 132.461 115.71 132.419C115.795 132.419 115.879 132.419 115.921 132.503C116.511 133.984 117.1 135.464 117.564 136.987C117.606 137.071 117.564 137.156 117.479 137.156C117.451 137.156 117.437 137.156 117.437 137.156Z" fill="black"/>
<path d="M115.963 140.836C115.879 140.836 115.837 140.794 115.837 140.751L114.026 134.957C113.984 134.914 114.026 134.83 114.11 134.787C114.194 134.787 114.236 134.83 114.279 134.872L116.09 140.667C116.132 140.751 116.09 140.794 116.005 140.836C115.977 140.836 115.963 140.836 115.963 140.836Z" fill="black"/>
<path d="M113.942 143.839C113.9 143.839 113.815 143.797 113.815 143.712L112.173 138.298C112.173 138.213 112.215 138.129 112.299 138.129C112.341 138.087 112.426 138.129 112.468 138.213L114.068 143.627C114.11 143.712 114.068 143.797 113.984 143.797C113.956 143.825 113.942 143.839 113.942 143.839Z" fill="black"/>
<path d="M111.794 147.223C111.751 147.223 111.709 147.18 111.667 147.138L110.109 141.132C110.067 141.047 110.109 141.005 110.193 140.963C110.277 140.963 110.362 141.005 110.362 141.047L111.962 147.054C111.962 147.138 111.92 147.223 111.836 147.223C111.836 147.223 111.822 147.223 111.794 147.223Z" fill="black"/>
<path d="M109.182 147.307C109.14 147.307 109.098 147.265 109.056 147.223L108.171 144.22C108.171 144.135 108.214 144.05 108.256 144.05C108.34 144.008 108.424 144.05 108.424 144.135L109.309 147.138C109.351 147.18 109.309 147.265 109.224 147.307C109.224 147.307 109.21 147.307 109.182 147.307Z" fill="black"/>
<g opacity="0.1">
<path opacity="0.1" d="M138.623 120.703C140.013 120.237 141.276 119.561 142.456 118.672C143.508 117.869 144.604 116.98 145.572 116.008C146.457 115.119 147.215 114.104 147.931 113.089C149.321 111.017 150.374 108.648 151.005 106.237C152.143 101.711 151.637 96.9317 149.995 92.6174C150.416 92.6174 150.837 92.8289 151.047 93.2941C151.427 93.9286 151.763 94.563 152.058 95.1975C152.227 95.6204 152.437 96.2126 152.395 96.6779C152.395 96.7343 152.395 96.8048 152.395 96.8894C152.606 97.9468 152.648 99.0042 152.732 100.062C152.845 100.541 152.957 101.034 153.069 101.542C153.238 102.473 153.575 103.911 153.49 105.645C153.406 107.041 153.364 108.394 152.985 109.705C152.648 110.805 152.227 111.905 151.595 112.92C151.595 113.089 151.511 113.301 151.342 113.427C151.202 113.568 151.076 113.695 150.963 113.808C150.767 114.062 150.556 114.302 150.332 114.527C150.275 114.584 150.219 114.64 150.163 114.696C148.857 116.304 147.762 118.08 145.951 119.18C144.393 120.11 142.54 120.491 140.813 120.956C140.616 120.984 140.42 121.027 140.223 121.083C140.195 121.111 140.167 121.125 140.139 121.125C140.139 121.125 140.167 121.111 140.223 121.083C139.339 121.548 138.37 121.76 137.359 121.845C136.601 121.887 136.391 121.845 136.222 121.802C135.927 121.718 135.717 121.548 135.59 121.379C135.703 121.323 135.829 121.252 135.969 121.168C136.854 121.125 137.78 120.999 138.623 120.703Z" fill="black"/>
</g>
<g opacity="0.1">
<path opacity="0.1" d="M119.88 124.213C120.47 124.213 120.849 124.678 121.397 124.89C121.734 125.031 122.085 125.186 122.45 125.355C122.787 125.567 123.208 125.651 123.46 125.947C124.261 126.836 123.123 128.189 122.028 127.639C120.933 127.132 119.67 126.455 119.375 126.201C119.347 126.201 119.333 126.187 119.333 126.159C118.406 125.651 118.785 124.255 119.88 124.213Z" fill="black"/>
</g>
<path d="M104.044 133.899C105.813 132.165 107.666 130.431 109.983 129.5C111.527 128.852 113.703 128.711 116.511 129.077L114.489 132.08C112.861 132.391 111.527 133.18 110.488 134.449C112.636 134.322 114.826 134.195 116.722 133.222C117.606 132.799 120.554 131.319 121.565 131.404C122.197 131.446 121.439 134.787 115.332 137.029C118.154 136.014 120.133 133.984 120.47 134.195C124.092 136.437 116.174 139.609 115.374 140.117C116.595 139.652 119.965 137.41 120.47 138.34C121.691 140.455 116.343 142.57 115.374 143.078C116.258 142.739 120.428 139.821 120.259 141.639C120.007 144.304 115.205 146.419 113.436 147.18C109.098 148.999 103.497 151.325 100.38 150.564C98.6953 150.141 96.9684 147.688 96.3788 144.854C96.0418 143.204 96.2945 141.217 97.516 140.032C98.0214 139.525 102.275 135.591 104.044 133.899Z" fill="white"/>
<path fill-rule="evenodd" clip-rule="evenodd" d="M101.77 151.114C101.236 151.114 100.745 151.058 100.295 150.945C98.4423 150.48 96.6312 147.942 95.9995 144.939C95.6625 143.331 95.7889 141.132 97.2209 139.736C97.3893 139.567 97.979 139.017 98.7371 138.34C100.253 136.902 102.57 134.745 103.749 133.603C105.602 131.784 107.498 130.092 109.856 129.12C112.215 128.104 116.384 128.654 116.553 128.654C116.721 128.697 116.848 128.781 116.89 128.908C116.974 129.035 116.932 129.204 116.848 129.289L114.826 132.334C114.77 132.419 114.686 132.475 114.573 132.503C114.531 132.503 112.931 132.799 111.541 133.984C113.226 133.857 114.995 133.603 116.511 132.842C120.428 130.896 121.312 130.938 121.565 130.981C121.818 130.981 122.07 131.15 122.155 131.573C122.197 132.038 121.902 132.969 120.975 134.026C121.565 134.477 121.846 134.999 121.818 135.591C121.775 136.352 121.228 137.071 120.343 137.748C120.568 137.805 120.737 137.931 120.849 138.129C121.102 138.552 121.158 139.003 121.017 139.482C120.891 139.905 120.554 140.328 120.175 140.709C120.231 140.737 120.273 140.765 120.301 140.794C120.47 140.92 120.723 141.174 120.68 141.682C120.47 143.67 118.111 145.658 113.563 147.561C109.94 149.084 105.097 151.114 101.77 151.114ZM113.857 129.331C112.594 129.331 111.162 129.458 110.151 129.881C107.919 130.811 106.15 132.461 104.339 134.195C103.159 135.337 100.843 137.494 99.2846 138.932C98.5265 139.652 97.979 140.159 97.8105 140.328C96.6312 141.47 96.5049 143.374 96.7997 144.769C97.3472 147.434 98.9477 149.76 100.464 150.141C103.454 150.903 109.14 148.534 113.268 146.8C117.353 145.066 119.67 143.247 119.838 141.597C119.838 141.513 119.838 141.47 119.838 141.47C119.712 141.386 119.375 141.47 118.996 141.639C118.027 142.274 116.932 142.782 116.216 143.162C116.132 143.19 116.062 143.219 116.005 143.247C115.809 143.36 115.654 143.43 115.542 143.458C115.331 143.543 115.079 143.458 114.995 143.247C114.91 143.078 114.995 142.824 115.163 142.739C115.275 142.655 115.43 142.57 115.626 142.485C115.795 142.401 116.005 142.274 116.216 142.147C117.1 141.639 117.859 141.217 118.532 140.963C119.333 140.413 120.007 139.821 120.217 139.229C120.259 139.017 120.259 138.763 120.133 138.552C119.754 138.34 117.816 139.355 117.016 139.778C116.384 140.075 115.879 140.371 115.5 140.497C115.331 140.582 115.079 140.455 114.995 140.286C114.91 140.075 114.995 139.863 115.163 139.736C115.275 139.652 115.514 139.525 115.879 139.355C117.143 138.763 120.933 136.945 120.975 135.549C121.003 135.239 120.807 134.928 120.386 134.618C120.358 134.646 120.343 134.66 120.343 134.66C119.333 135.549 117.859 136.522 115.795 137.325C115.682 137.353 115.584 137.396 115.5 137.452C115.247 137.537 115.037 137.41 114.952 137.198C114.868 136.987 114.995 136.733 115.205 136.648C115.289 136.62 115.374 136.592 115.458 136.564C117.016 135.929 118.28 135.083 119.122 134.449C119.403 134.252 119.656 134.097 119.88 133.984C120.891 133.011 121.27 132.207 121.312 131.827C120.849 131.869 119.67 132.207 116.89 133.603C114.91 134.618 112.552 134.745 110.53 134.872C110.362 134.872 110.193 134.787 110.109 134.66C110.025 134.491 110.067 134.322 110.151 134.195C111.583 132.461 113.647 131.869 114.236 131.7L115.795 129.416C115.289 129.373 114.615 129.331 113.857 129.331Z" fill="black"/>
<path d="M45.627 156.232C45.4164 156.232 45.2479 156.105 45.2058 155.936C45.1637 155.724 45.2901 155.471 45.5006 155.428C57.7569 152.129 69.8868 147.857 81.5112 142.782L82.3536 142.401C87.7446 140.075 93.3042 137.621 99.2006 137.96C99.4112 137.96 99.5797 138.171 99.5797 138.383C99.5797 138.636 99.3691 138.806 99.1585 138.806C93.4726 138.467 87.9974 140.878 82.6905 143.204L81.8482 143.543C70.1816 148.661 58.0096 152.933 45.7112 156.232C45.6832 156.232 45.6551 156.232 45.627 156.232Z" fill="black"/>
<path d="M49.586 154.709C49.5579 154.709 49.5158 154.695 49.4596 154.667C49.249 154.625 49.1227 154.413 49.1648 154.159C49.5017 152.89 49.8387 151.565 50.1756 150.183C51.8603 143.67 53.9241 135.549 55.8194 126.159C55.8615 125.905 56.0721 125.778 56.2827 125.82C56.5354 125.863 56.6617 126.074 56.6196 126.328C54.7243 135.76 52.6606 143.839 50.9759 150.395C50.6389 151.777 50.302 153.102 49.965 154.371C49.9229 154.582 49.7545 154.709 49.586 154.709Z" fill="black"/>
<g opacity="0.1">
<path opacity="0.1" d="M100.043 149.211C99.9584 149.168 99.8736 149.126 100.043 149.211V149.211Z" fill="black"/>
</g>
<g opacity="0.1">
<path opacity="0.1" fill-rule="evenodd" clip-rule="evenodd" d="M97.6422 148.745C97.9792 148.492 98.4003 148.661 98.6109 148.957C98.653 148.872 98.7373 148.788 98.8636 148.788C99.2848 148.703 99.6217 149.084 100.043 149.211C100.071 149.239 100.099 149.253 100.127 149.253C99.8745 149.168 100.169 149.253 100.296 149.295C100.548 149.38 101.096 149.549 101.686 149.507C102.149 149.507 103.075 149.253 103.96 148.999C107.708 148.111 111.288 146.673 114.868 145.362C115.247 145.235 116.006 144.981 116.174 144.939C116.202 144.939 116.23 144.925 116.258 144.896C116.623 144.755 116.988 144.572 117.353 144.346C117.48 144.262 117.606 144.262 117.69 144.262C118.069 144.389 118.154 144.939 117.817 145.108C116.848 145.742 114.826 146.546 114.616 146.673C112.383 147.688 110.109 148.534 106.908 149.549C104.929 150.141 103.37 150.606 101.559 150.691C101.391 150.663 101.222 150.635 101.054 150.606C101.194 150.719 101.349 150.818 101.517 150.903C101.545 150.931 101.587 150.959 101.643 150.987C101.671 150.987 101.7 150.987 101.728 150.987C101.756 150.959 101.784 150.945 101.812 150.945C102.191 150.86 102.612 150.564 103.033 150.818C103.454 151.072 103.497 151.622 103.244 151.96C103.665 152.721 102.865 153.694 102.191 153.906C102.051 153.962 101.91 153.99 101.77 153.99C101.77 153.99 101.756 153.99 101.728 153.99C101.7 153.99 101.686 153.99 101.686 153.99C101.433 153.948 101.18 153.906 100.97 153.779C100.913 153.751 100.857 153.708 100.801 153.652C100.829 153.68 100.857 153.694 100.885 153.694C100.59 153.567 100.338 153.356 100.043 153.102C98.99 152.171 98.3161 150.903 97.6001 149.676C97.5159 149.591 97.4316 149.464 97.4316 149.338C97.3895 149.126 97.4737 148.872 97.6422 148.745ZM100.97 153.736C100.941 153.736 100.913 153.722 100.885 153.694C100.913 153.722 100.941 153.736 100.97 153.736ZM99.6639 150.31C99.6639 150.254 99.6919 150.212 99.7481 150.183C99.5796 150.127 99.4252 150.057 99.2848 149.972C99.369 150.057 99.4954 150.141 99.6639 150.31Z" fill="black"/>
</g>
<g opacity="0.1">
<path opacity="0.1" d="M54.1348 150.987C54.0927 151.96 54.1769 152.764 54.0084 153.44C53.0819 153.779 52.071 154.033 51.1023 154.286C50.5969 154.413 50.0915 154.54 49.5861 154.709C49.4597 154.371 49.5019 153.99 49.5861 153.694C49.5861 153.525 49.5861 153.736 49.544 153.821C50.0915 151.664 50.9339 149.549 51.5235 147.434C51.8324 146.419 52.0851 145.39 52.2816 144.347C52.3659 143.839 52.4501 143.374 52.4922 143.078C52.5343 142.697 52.787 142.359 53.0819 142.274C53.3346 139.905 53.7136 137.875 54.1348 135.38C54.2612 134.534 54.3875 133.688 54.5981 132.842C54.6402 132.63 54.6402 132.419 54.8508 132.292C55.1877 132.08 55.6089 132.419 55.4826 132.799C54.6823 137.029 54.3875 140.878 54.2612 145.615C54.205 147.392 54.1629 149.182 54.1348 150.987Z" fill="black"/>
</g>
<g opacity="0.1">
<path opacity="0.1" d="M30.7593 170.571C31.012 170.401 31.3068 170.486 31.4753 170.74C31.6999 170.994 31.9386 171.233 32.1913 171.459C33.3706 172.516 33.4969 172.77 34.8868 173.32C36.2346 173.912 38.7616 175.139 40.7411 175.562C44.8266 176.154 51.3969 175.562 55.6508 174.8C58.9781 174.25 62.179 173.235 65.4221 172.432C68.7073 171.501 71.9924 170.655 75.1513 169.344C76.836 168.752 77.4677 168.413 79.4051 167.525C79.9527 167.441 80.2475 168.244 79.7421 168.54C75.5724 170.867 72.3715 171.924 67.907 173.447C61.6315 175.689 55.0611 177.253 48.3223 177.592C45.5004 177.719 42.5943 177.973 39.8146 177.296C37.6666 176.619 34.3814 174.969 33.2021 174.081C32.3597 173.489 31.9807 172.982 31.0962 172.009C30.9277 171.713 30.0433 171.078 30.7593 170.571Z" fill="black"/>
</g>
<g opacity="0.1">
<path opacity="0.1" d="M115.668 178.311C115.879 178.311 116.005 178.438 116.174 178.48C116.216 178.522 116.3 178.565 116.342 178.565C117.227 178.861 116.932 178.776 117.901 178.861C119.754 178.903 119.08 178.861 121.059 178.565C122.618 178.396 125.903 177.592 128.514 176.873C131.041 176.154 132.136 175.646 134.074 174.843C135.295 174.335 138.454 172.728 139.718 172.22C140.644 171.966 141.234 173.235 140.391 173.743C136.264 175.773 131.336 177.761 125.861 178.988C123.292 179.622 121.228 180.299 118.911 180.214C118.827 180.214 118.743 180.214 118.659 180.214C118.097 180.186 117.536 180.13 116.974 180.045C116.721 180.003 116.511 179.961 116.3 179.834C116.342 179.876 116.511 179.918 116.427 179.876C116.384 179.876 116.3 179.834 116.216 179.834C115.879 179.622 115.458 179.538 115.205 179.241C114.91 178.903 115.205 178.311 115.668 178.311Z" fill="black"/>
</g>
<g opacity="0.1">
<path opacity="0.1" d="M116.217 179.792C116.09 179.749 116.047 179.749 116.217 179.792V179.792Z" fill="black"/>
</g>
<g opacity="0.1">
<path opacity="0.1" d="M110.362 151.833C110.39 151.833 110.404 151.833 110.404 151.833C110.376 151.861 110.362 151.861 110.362 151.833Z" fill="black"/>
</g>
<g opacity="0.1">
<path opacity="0.1" d="M108.129 154.455C108.172 153.398 108.298 152.383 108.34 151.325C108.424 150.818 108.382 150.226 108.508 149.718C108.761 148.999 109.856 149.253 109.856 149.972C109.856 150 109.856 150.014 109.856 150.014C110.32 149.718 110.825 149.507 111.288 149.168C112.088 148.618 112.046 148.576 112.678 148.153C113.478 147.561 114.405 147.138 115.247 146.631C117.143 145.404 117.564 144.981 118.49 144.177C119.08 143.458 119.585 142.824 119.796 141.682C119.796 141.654 119.796 141.625 119.796 141.597C119.796 141.428 119.796 141.259 119.838 141.09C119.838 141.005 119.922 140.878 119.964 140.794C119.993 140.737 120.035 140.695 120.091 140.667C120.091 140.638 120.091 140.624 120.091 140.624C120.133 140.54 120.175 140.371 120.175 140.286C120.344 140.032 120.301 138.383 120.217 138.298C120.217 138.044 120.091 137.833 120.133 137.579C120.217 136.818 121.354 136.733 121.523 137.452C121.691 138.34 121.733 139.186 121.607 140.075C121.635 140.075 121.635 140.103 121.607 140.159C121.565 140.582 121.481 140.963 121.312 141.343C121.284 141.343 121.27 141.358 121.27 141.386C121.27 141.442 121.27 141.484 121.27 141.513C121.27 141.936 121.186 142.359 121.06 142.739C120.68 143.924 120.933 143.247 120.428 144.304C119.585 145.911 118.869 146.461 116.848 147.899C115.289 148.915 113.394 149.761 112.51 150.606C111.92 151.072 111.246 151.495 110.53 151.791C110.474 151.819 110.432 151.833 110.404 151.833C110.404 151.833 110.418 151.833 110.446 151.833C110.418 151.833 110.39 151.847 110.362 151.875C110.334 151.875 110.305 151.875 110.277 151.875C110.193 151.932 110.109 151.974 110.025 152.002C109.912 152.03 109.8 152.059 109.688 152.087C109.688 152.087 109.674 152.087 109.646 152.087C109.393 155.513 109.393 158.981 109.309 162.45C109.309 163.507 109.224 164.564 109.14 165.58C109.14 166.679 109.224 168.456 109.267 168.667C109.267 168.413 109.267 168.583 109.309 168.752C109.435 169.217 108.803 169.555 108.466 169.217C108.256 168.836 108.382 169.048 108.214 168.583C107.624 165.114 107.961 158.981 108.129 154.455Z" fill="black"/>
</g>
<path d="M48.9961 86.7381C50.4382 86.7381 51.6074 85.564 51.6074 84.1157C51.6074 82.6674 50.4382 81.4933 48.9961 81.4933C47.5539 81.4933 46.3848 82.6674 46.3848 84.1157C46.3848 85.564 47.5539 86.7381 48.9961 86.7381Z" fill="white"/>
<path fill-rule="evenodd" clip-rule="evenodd" d="M48.9963 87.1611C47.3116 87.1611 45.9639 85.8076 45.9639 84.1157C45.9639 82.4238 47.3116 81.028 48.9963 81.028C50.681 81.028 52.0709 82.4238 52.0709 84.1157C52.0709 85.8076 50.681 87.1611 48.9963 87.1611ZM51.2286 84.1157C51.2286 82.8891 50.2177 81.8739 48.9963 81.8739C47.7749 81.8739 46.8062 82.8891 46.8062 84.1157C46.8062 85.3423 47.7749 86.3151 48.9963 86.3151C50.2177 86.3151 51.2286 85.3423 51.2286 84.1157Z" fill="black"/>
<path fill-rule="evenodd" clip-rule="evenodd" d="M178.032 60.1331C176.348 60.1331 175 58.7796 175 57.0877C175 55.3958 176.348 54 178.032 54C179.717 54 181.107 55.3958 181.107 57.0877C181.107 58.7796 179.717 60.1331 178.032 60.1331ZM180.265 57.0877C180.265 55.8611 179.254 54.8459 178.032 54.8459C176.811 54.8459 175.842 55.8611 175.842 57.0877C175.842 58.3143 176.811 59.2871 178.032 59.2871C179.254 59.2871 180.265 58.3143 180.265 57.0877Z" fill="black"/>
<path d="M137.78 180.045C138.454 163.634 137.485 141.47 137.991 124.552C160.229 124.975 182.593 125.482 204.2 124.678C204.2 141.513 203.526 166.425 204.2 180.045C181.161 180.003 160.061 178.861 137.78 180.045Z" fill="white"/>
<path fill-rule="evenodd" clip-rule="evenodd" d="M204.2 180.468C196.829 180.468 189.585 180.299 182.593 180.172C167.347 179.918 152.942 179.664 137.822 180.468C137.696 180.468 137.569 180.426 137.485 180.341C137.401 180.257 137.359 180.13 137.359 180.045C137.738 171.374 137.612 160.927 137.527 150.818C137.443 141.809 137.359 132.503 137.612 124.509C137.612 124.298 137.78 124.129 137.991 124.129C138.019 124.129 138.033 124.129 138.033 124.129L142.918 124.213C163.219 124.594 184.194 125.017 204.157 124.255C204.284 124.255 204.41 124.298 204.494 124.382C204.579 124.467 204.621 124.552 204.621 124.678C204.621 130.135 204.537 136.31 204.452 142.908C204.326 156.613 204.157 170.824 204.621 180.045C204.621 180.13 204.579 180.257 204.494 180.341C204.41 180.426 204.326 180.468 204.2 180.468ZM160.313 179.072C167.684 179.072 175.054 179.199 182.593 179.368C189.458 179.495 196.534 179.622 203.736 179.622C203.315 170.401 203.484 156.401 203.652 142.866C203.694 136.479 203.778 130.431 203.778 125.101C183.899 125.82 163.051 125.44 142.918 125.059L138.412 124.975C138.201 132.842 138.285 141.978 138.37 150.818C138.454 160.758 138.58 170.994 138.201 179.622C145.698 179.199 153.027 179.072 160.313 179.072Z" fill="black"/>
<path fill-rule="evenodd" clip-rule="evenodd" d="M177.16 137.452C177.16 137.452 177.146 137.452 177.118 137.452C173.538 137.029 167.431 137.071 164.609 137.283C164.483 137.283 164.357 137.241 164.272 137.156C164.188 137.071 164.146 136.945 164.146 136.818C164.357 134.068 164.399 131.15 164.441 128.316C164.483 127.005 164.483 125.609 164.525 124.213C164.525 124.002 164.736 123.832 164.946 123.832C167.768 123.832 176.402 123.917 177.371 123.79C177.497 123.79 177.582 123.832 177.708 123.917C177.792 124.002 177.834 124.129 177.834 124.213C177.834 126.159 177.75 128.274 177.708 130.262C177.666 132.546 177.582 134.914 177.582 137.029C177.582 137.156 177.539 137.283 177.455 137.368C177.371 137.424 177.273 137.452 177.16 137.452ZM169.706 136.268C172.148 136.268 174.76 136.352 176.739 136.564C176.739 134.534 176.823 132.376 176.866 130.262C176.908 128.401 176.992 126.497 176.992 124.678C175.265 124.721 170.042 124.721 165.367 124.678C165.325 125.905 165.283 127.132 165.283 128.358C165.241 131.023 165.199 133.772 165.03 136.395C166.252 136.31 167.937 136.268 169.706 136.268Z" fill="black"/>
<path d="M196.913 142.274C196.661 142.232 196.492 142.062 196.492 141.809C196.703 139.186 196.787 136.564 196.871 133.941C196.871 133.688 197.04 133.518 197.292 133.518C197.503 133.518 197.671 133.73 197.671 133.941C197.629 136.564 197.545 139.229 197.335 141.893C197.335 142.105 197.124 142.274 196.913 142.274Z" fill="black"/>
<path d="M193.418 142.02C193.418 142.02 193.404 142.02 193.376 142.02C193.165 141.978 192.997 141.809 192.997 141.555L193.418 133.984C193.418 133.772 193.628 133.603 193.839 133.603C194.092 133.603 194.26 133.815 194.218 134.026L193.839 141.597C193.839 141.851 193.628 142.02 193.418 142.02Z" fill="black"/>
<path d="M190.09 142.062C190.09 142.062 190.076 142.062 190.048 142.062C189.837 142.02 189.669 141.809 189.669 141.597C189.922 139.059 190.006 136.479 189.964 133.899C189.964 133.688 190.132 133.476 190.385 133.476C190.596 133.476 190.806 133.645 190.806 133.899C190.848 136.479 190.764 139.102 190.511 141.682C190.511 141.893 190.301 142.062 190.09 142.062Z" fill="black"/>
<path fill-rule="evenodd" clip-rule="evenodd" d="M144.772 151.622C144.687 151.622 144.603 151.593 144.519 151.537C144.435 151.452 144.379 151.354 144.35 151.241C144.224 147.984 144.308 144.981 144.35 141.851L144.393 140.836C144.393 140.624 144.561 140.455 144.814 140.455C149.573 140.497 154.332 140.497 158.965 140.455H159.007C159.134 140.455 159.218 140.497 159.302 140.582C159.386 140.667 159.429 140.794 159.429 140.92C159.4 141.795 159.372 142.655 159.344 143.501C159.26 145.996 159.176 148.576 159.049 151.114C159.049 151.368 158.881 151.537 158.628 151.537C156.649 151.579 154.543 151.579 152.563 151.537C149.994 151.537 147.383 151.495 144.814 151.622C144.814 151.622 144.8 151.622 144.772 151.622ZM145.193 141.259V141.893C145.109 144.854 145.066 147.688 145.193 150.776C147.636 150.649 150.121 150.691 152.563 150.691C154.417 150.733 156.354 150.733 158.249 150.691C158.333 148.28 158.418 145.827 158.502 143.501C158.53 142.767 158.558 142.034 158.586 141.301C154.206 141.343 149.699 141.343 145.193 141.259Z" fill="black"/>
<path d="M166.589 134.872C166.505 134.872 166.42 134.83 166.42 134.745C166.42 134.661 166.505 134.576 166.589 134.576L175.56 134.111C175.644 134.111 175.728 134.153 175.728 134.238C175.728 134.322 175.686 134.364 175.602 134.364L166.589 134.872Z" fill="black"/>
<path d="M156.691 148.449C156.663 148.449 156.649 148.449 156.649 148.449L147.762 148.238C147.678 148.238 147.636 148.196 147.636 148.111C147.636 148.026 147.72 147.942 147.762 147.984L156.691 148.196C156.733 148.196 156.817 148.238 156.817 148.322C156.817 148.407 156.733 148.449 156.691 148.449Z" fill="black"/>
<path d="M150.668 146.123C150.584 146.123 150.542 146.038 150.5 145.996C150.5 145.911 150.584 145.827 150.668 145.827C152.522 145.658 154.459 145.615 156.354 145.573C156.439 145.573 156.481 145.658 156.481 145.742C156.481 145.827 156.439 145.869 156.354 145.869C156.298 145.869 156.256 145.869 156.228 145.869C154.375 145.869 152.522 145.954 150.668 146.123Z" fill="black"/>
<path d="M156.312 143.627L147.762 143.585C147.678 143.585 147.636 143.543 147.636 143.458C147.636 143.374 147.678 143.331 147.762 143.331L156.312 143.374C156.396 143.374 156.48 143.416 156.48 143.501C156.48 143.585 156.396 143.627 156.312 143.627Z" fill="black"/>
<g opacity="0.1">
<path opacity="0.1" d="M163.851 137.452C164.019 137.311 164.202 137.241 164.399 137.241C164.525 137.198 164.483 137.241 164.862 137.198C168.863 136.733 172.864 136.987 176.823 137.325C177.876 137.325 177.876 138.89 176.823 138.89C172.822 138.594 168.779 138.51 164.735 138.594C164.525 138.594 164.272 138.679 164.062 138.552C163.64 138.383 163.514 137.748 163.851 137.452Z" fill="black"/>
</g>
<g opacity="0.1">
<path opacity="0.1" d="M144.477 151.452C144.688 151.325 144.94 151.41 145.193 151.368C144.772 151.41 145.572 151.325 145.741 151.325C147.622 151.297 149.517 151.283 151.426 151.283C153.364 151.241 155.343 151.114 157.281 151.283C157.744 151.325 158.376 151.114 158.713 151.452C159.134 151.875 158.797 152.721 158.165 152.721C156.27 152.679 154.375 152.89 152.479 152.848C149.91 152.89 147.341 152.764 144.772 152.679C144.14 152.679 143.887 151.791 144.477 151.452Z" fill="black"/>
</g>
<path d="M229.5 102.387C229.5 170.468 185.027 228.5 122.278 228.5C90.9055 228.5 60.4629 211.369 37.848 185.686C15.2352 160.005 0.5 125.828 0.5 91.8364C0.5 57.9889 23.8156 35.1639 55.1497 20.7746C86.4807 6.38669 125.708 0.5 157.215 0.5C188.681 0.5 206.666 9.00086 216.846 25.8542C227.072 42.7832 229.5 68.2424 229.5 102.387Z" stroke="#2F2E41"/>
<path d="M168.25 151.25C168.25 150.653 168.487 150.081 168.909 149.659C169.331 149.237 169.903 149 170.5 149H179.5C180.097 149 180.669 149.237 181.091 149.659C181.513 150.081 181.75 150.653 181.75 151.25V166.438C181.75 166.539 181.722 166.639 181.67 166.726C181.618 166.814 181.543 166.885 181.453 166.933C181.363 166.981 181.262 167.004 181.161 166.999C181.059 166.994 180.961 166.962 180.876 166.906L175 163.739L169.124 166.906C169.039 166.962 168.941 166.994 168.839 166.999C168.738 167.004 168.637 166.981 168.547 166.933C168.457 166.885 168.382 166.814 168.33 166.726C168.278 166.639 168.25 166.539 168.25 166.438V151.25ZM170.5 150.125C170.202 150.125 169.915 150.244 169.705 150.455C169.494 150.665 169.375 150.952 169.375 151.25V165.387L174.688 162.594C174.781 162.533 174.889 162.5 175 162.5C175.111 162.5 175.219 162.533 175.312 162.594L180.625 165.387V151.25C180.625 150.952 180.506 150.665 180.295 150.455C180.085 150.244 179.798 150.125 179.5 150.125H170.5Z" fill="black"/>
<path fill-rule="evenodd" clip-rule="evenodd" d="M126.032 215.133C124.348 215.133 123 213.78 123 212.088C123 210.396 124.348 209 126.032 209C127.717 209 129.107 210.396 129.107 212.088C129.107 213.78 127.717 215.133 126.032 215.133ZM128.265 212.088C128.265 210.861 127.254 209.846 126.032 209.846C124.811 209.846 123.842 210.861 123.842 212.088C123.842 213.314 124.811 214.287 126.032 214.287C127.254 214.287 128.265 213.314 128.265 212.088Z" fill="black"/>
</svg>
