<svg width="103" height="42" viewBox="0 0 103 42" fill="none" xmlns="http://www.w3.org/2000/svg">
<circle cx="82" cy="21" r="21" fill="#1A73E8"/>
<path d="M14.7734 13V29H11.8516L4.89063 18.9297H4.77344V29H1.39062V13H4.35938L11.2656 23.0625H11.4063V13H14.7734ZM22.9746 29.2344C21.7402 29.2344 20.6777 28.9844 19.7871 28.4844C18.9017 27.9792 18.2194 27.2656 17.7402 26.3437C17.2611 25.4167 17.0215 24.3203 17.0215 23.0547C17.0215 21.8203 17.2611 20.737 17.7402 19.8047C18.2194 18.8724 18.8939 18.1458 19.7637 17.625C20.6387 17.1042 21.6647 16.8438 22.8418 16.8438C23.6335 16.8438 24.3704 16.9714 25.0527 17.2266C25.7402 17.4766 26.3392 17.8542 26.8496 18.3594C27.3652 18.8646 27.7663 19.5 28.0527 20.2656C28.3392 21.026 28.4824 21.9167 28.4824 22.9375V23.8516H18.3496V21.7891H25.3496C25.3496 21.3099 25.2454 20.8854 25.0371 20.5156C24.8288 20.1458 24.5397 19.8568 24.1699 19.6484C23.8053 19.4349 23.3809 19.3281 22.8965 19.3281C22.3913 19.3281 21.9434 19.4453 21.5527 19.6797C21.1673 19.9089 20.8652 20.2187 20.6465 20.6094C20.4277 20.9948 20.3158 21.4245 20.3105 21.8984V23.8594C20.3105 24.4531 20.4199 24.9661 20.6387 25.3984C20.8626 25.8307 21.1777 26.1641 21.584 26.3984C21.9902 26.6328 22.472 26.75 23.0293 26.75C23.3991 26.75 23.7376 26.6979 24.0449 26.5938C24.3522 26.4896 24.6152 26.3333 24.834 26.125C25.0527 25.9167 25.2194 25.6615 25.334 25.3594L28.4121 25.5625C28.2559 26.3021 27.9355 26.9479 27.4512 27.5C26.972 28.0469 26.3522 28.474 25.5918 28.7813C24.8366 29.0833 23.9642 29.2344 22.9746 29.2344ZM32.9355 29L29.6699 17H33.0371L34.8965 25.0625H35.0059L36.9434 17H40.248L42.2168 25.0156H42.3184L44.1465 17H47.5059L44.248 29H40.7246L38.6621 21.4531H38.5137L36.4512 29H32.9355ZM59.2656 20.4219L56.2188 20.6094C56.1667 20.349 56.0547 20.1146 55.8828 19.9062C55.7109 19.6927 55.4844 19.5234 55.2031 19.3984C54.9271 19.2682 54.5964 19.2031 54.2109 19.2031C53.6953 19.2031 53.2604 19.3125 52.9063 19.5312C52.5521 19.7448 52.375 20.0312 52.375 20.3906C52.375 20.6771 52.4896 20.9193 52.7188 21.1172C52.9479 21.3151 53.3411 21.474 53.8984 21.5937L56.0703 22.0312C57.237 22.2708 58.1068 22.6562 58.6797 23.1875C59.2526 23.7187 59.5391 24.4167 59.5391 25.2812C59.5391 26.0677 59.3073 26.7578 58.8438 27.3516C58.3854 27.9453 57.7552 28.4089 56.9531 28.7422C56.1563 29.0703 55.237 29.2344 54.1953 29.2344C52.6068 29.2344 51.3411 28.9036 50.3984 28.2422C49.4609 27.5755 48.9115 26.6693 48.75 25.5234L52.0234 25.3516C52.1224 25.8359 52.362 26.2057 52.7422 26.4609C53.1224 26.7109 53.6094 26.8359 54.2031 26.8359C54.7865 26.8359 55.2552 26.724 55.6094 26.5C55.9688 26.2708 56.151 25.9766 56.1563 25.6172C56.151 25.3151 56.0234 25.0677 55.7734 24.875C55.5234 24.6771 55.138 24.526 54.6172 24.4219L52.5391 24.0078C51.3672 23.7734 50.4948 23.3672 49.9219 22.7891C49.3542 22.2109 49.0703 21.474 49.0703 20.5781C49.0703 19.8073 49.2786 19.1432 49.6953 18.5859C50.1172 18.0286 50.7083 17.599 51.4688 17.2969C52.2344 16.9948 53.1302 16.8438 54.1563 16.8438C55.6719 16.8438 56.8646 17.1641 57.7344 17.8047C58.6094 18.4453 59.1198 19.3177 59.2656 20.4219Z" fill="#20293A"/>
<path d="M73.0625 29H67.3906V13H73.1094C74.7188 13 76.1042 13.3203 77.2656 13.9609C78.4271 14.5964 79.3203 15.5104 79.9453 16.7031C80.5755 17.8958 80.8906 19.3229 80.8906 20.9844C80.8906 22.651 80.5755 24.0833 79.9453 25.2812C79.3203 26.4792 78.4219 27.3984 77.25 28.0391C76.0833 28.6797 74.6875 29 73.0625 29ZM70.7734 26.1016H72.9219C73.9219 26.1016 74.763 25.9245 75.4453 25.5703C76.1328 25.2109 76.6484 24.6562 76.9922 23.9062C77.3411 23.151 77.5156 22.1771 77.5156 20.9844C77.5156 19.8021 77.3411 18.8359 76.9922 18.0859C76.6484 17.3359 76.1354 16.7839 75.4531 16.4297C74.7708 16.0755 73.9297 15.8984 72.9297 15.8984H70.7734V26.1016ZM85.8164 13L89.043 18.4531H89.168L92.4102 13H96.2305L91.3477 21L96.3398 29H92.4492L89.168 23.5391H89.043L85.7617 29H81.8867L86.8945 21L81.9805 13H85.8164Z" fill="white"/>
</svg>
