<svg width="34" height="34" viewBox="0 0 34 34" fill="none" xmlns="http://www.w3.org/2000/svg">
<path d="M28.4208 26.4881C29.9467 24.6522 31.008 22.4758 31.5148 20.1431C32.0217 17.8103 31.9593 15.3897 31.3328 13.0862C30.7063 10.7826 29.5343 8.66385 27.9158 6.90908C26.2973 5.15431 24.2799 3.81516 22.0344 3.00493C19.7889 2.1947 17.3813 1.93722 15.0152 2.25427C12.6491 2.57132 10.3942 3.45358 8.44126 4.8264C6.48828 6.19922 4.89467 8.02223 3.79524 10.1412C2.69581 12.2602 2.12291 14.6128 2.12501 17C2.12581 20.4703 3.34873 23.8295 5.57919 26.4881L5.55794 26.5062C5.63232 26.5954 5.71732 26.6719 5.79382 26.7601C5.88944 26.8696 5.99251 26.9726 6.09132 27.0789C6.38882 27.4019 6.69482 27.7121 7.01569 28.0032C7.11344 28.0925 7.21438 28.1754 7.31319 28.2604C7.65319 28.5536 8.00276 28.832 8.36507 29.0912C8.41182 29.1231 8.45432 29.1645 8.50107 29.1975V29.1847C10.9896 30.9359 13.9582 31.8758 17.0011 31.8758C20.044 31.8758 23.0126 30.9359 25.5011 29.1847V29.1975C25.5478 29.1645 25.5893 29.1231 25.6371 29.0912C25.9983 28.8309 26.3489 28.5536 26.6889 28.2604C26.7878 28.1754 26.8887 28.0914 26.9864 28.0032C27.3073 27.7111 27.6133 27.4019 27.9108 27.0789C28.0096 26.9726 28.1116 26.8696 28.2083 26.7601C28.2838 26.6719 28.3698 26.5954 28.4442 26.5051L28.4208 26.4881ZM17 8.49999C17.9456 8.49999 18.8701 8.7804 19.6563 9.30577C20.4426 9.83114 21.0554 10.5779 21.4173 11.4515C21.7792 12.3252 21.8739 13.2865 21.6894 14.214C21.5049 15.1415 21.0495 15.9934 20.3809 16.6621C19.7122 17.3308 18.8603 17.7861 17.9328 17.9706C17.0053 18.1551 16.044 18.0604 15.1703 17.6985C14.2966 17.3367 13.5499 16.7238 13.0245 15.9376C12.4992 15.1513 12.2188 14.2269 12.2188 13.2812C12.2188 12.0132 12.7225 10.797 13.6192 9.90038C14.5158 9.00372 15.7319 8.49999 17 8.49999ZM8.50744 26.4881C8.52587 25.093 9.09282 23.7613 10.0856 22.781C11.0784 21.8007 12.4173 21.2507 13.8125 21.25H20.1875C21.5827 21.2507 22.9216 21.8007 23.9144 22.781C24.9072 23.7613 25.4741 25.093 25.4926 26.4881C23.1623 28.588 20.1368 29.7501 17 29.7501C13.8632 29.7501 10.8377 28.588 8.50744 26.4881Z" fill="#0F74FF"/>
</svg>
