<svg width="28" height="28" viewBox="0 0 28 28" fill="none" xmlns="http://www.w3.org/2000/svg">
<path d="M16.968 7.67199L14 4.70399L11.032 7.67199L10.248 6.88799L14 3.13599L17.752 6.88799L16.968 7.67199Z" fill="black"/>
<path d="M13.44 3.91998H14.56V15.68H13.44V3.91998Z" fill="black"/>
<path d="M19.6 22.4H8.39997C7.44797 22.4 6.71997 21.672 6.71997 20.72V10.64C6.71997 9.68802 7.44797 8.96002 8.39997 8.96002H12.32V10.08H8.39997C8.06397 10.08 7.83997 10.304 7.83997 10.64V20.72C7.83997 21.056 8.06397 21.28 8.39997 21.28H19.6C19.936 21.28 20.16 21.056 20.16 20.72V10.64C20.16 10.304 19.936 10.08 19.6 10.08H15.68V8.96002H19.6C20.552 8.96002 21.28 9.68802 21.28 10.64V20.72C21.28 21.672 20.552 22.4 19.6 22.4Z" fill="black"/>
</svg>
