<svg width="28" height="28" viewBox="0 0 28 28" fill="none" xmlns="http://www.w3.org/2000/svg">
<path d="M14.395 3.90201C15.193 3.15401 16.5 3.72001 16.5 4.81401V23.184C16.5 24.278 15.194 24.844 14.395 24.096L9.458 19.47C9.13382 19.1662 8.70625 18.9972 8.262 18.997H5.25C4.38805 18.997 3.5614 18.6546 2.9519 18.0451C2.34241 17.4356 2 16.609 2 15.747V12.255C2 11.3931 2.34241 10.5664 2.9519 9.95691C3.5614 9.34742 4.38805 9.00501 5.25 9.00501H8.261C8.706 9.00501 9.134 8.83501 9.458 8.53201L14.395 3.90201V3.90201ZM21.644 5.18401C21.7934 5.05281 21.9887 4.98628 22.1871 4.99903C22.3855 5.01178 22.5707 5.10277 22.702 5.25201C24.8315 7.66816 26.0044 10.7794 26 14C26 17.352 24.754 20.414 22.702 22.747C22.638 22.8243 22.5591 22.8881 22.4701 22.9344C22.381 22.9807 22.2835 23.0086 22.1835 23.0166C22.0834 23.0245 21.9828 23.0123 21.8875 22.9806C21.7922 22.9489 21.7043 22.8984 21.6289 22.8322C21.5535 22.7659 21.4922 22.6851 21.4486 22.5947C21.405 22.5043 21.38 22.406 21.3751 22.3058C21.3701 22.2055 21.3854 22.1053 21.4199 22.011C21.4544 21.9167 21.5075 21.8304 21.576 21.757C23.4646 19.6148 24.5045 16.8558 24.5 14C24.5047 11.1441 23.4647 8.38515 21.576 6.24301C21.5109 6.16903 21.461 6.08294 21.4292 5.98967C21.3973 5.8964 21.3842 5.79776 21.3905 5.69941C21.3968 5.60106 21.4225 5.50492 21.466 5.41648C21.5095 5.32805 21.57 5.24905 21.644 5.18401V5.18401ZM20.353 8.30301C20.2337 8.14388 20.056 8.03867 19.8591 8.01054C19.6622 7.98241 19.4621 8.03366 19.303 8.15301C19.1439 8.27235 19.0387 8.45003 19.0105 8.64694C18.9824 8.84385 19.0337 9.04388 19.153 9.20301C20.1924 10.586 20.753 12.27 20.75 14C20.75 15.8 20.156 17.46 19.153 18.797C19.0939 18.8758 19.0509 18.9655 19.0265 19.0609C19.002 19.1563 18.9966 19.2556 19.0105 19.3531C19.0245 19.4506 19.0575 19.5444 19.1076 19.6291C19.1578 19.7139 19.2242 19.7879 19.303 19.847C19.3818 19.9061 19.4715 19.9491 19.5669 19.9735C19.6623 19.998 19.7616 20.0034 19.8591 19.9895C19.9566 19.9755 20.0504 19.9425 20.1351 19.8924C20.2199 19.8422 20.2939 19.7758 20.353 19.697C21.5872 18.0544 22.253 16.0546 22.25 14C22.2531 11.9454 21.5872 9.94561 20.353 8.30301V8.30301Z" fill="#494949"/>
</svg>
