<svg width="24" height="24" viewBox="0 0 24 24" fill="none" xmlns="http://www.w3.org/2000/svg">
<path d="M20.4 19.5C20.4 19.7387 20.3052 19.9676 20.1364 20.1364C19.9676 20.3052 19.7387 20.4 19.5 20.4H5.69998C5.14302 20.4 4.60888 20.1788 4.21505 19.7849C3.82123 19.3911 3.59998 18.857 3.59998 18.3V4.50001C3.59998 4.26131 3.6948 4.03239 3.86358 3.86361C4.03236 3.69483 4.26128 3.60001 4.49998 3.60001C4.73867 3.60001 4.96759 3.69483 5.13637 3.86361C5.30515 4.03239 5.39998 4.26131 5.39998 4.50001V18.3C5.39998 18.4656 5.53438 18.6 5.69998 18.6H19.5C19.7387 18.6 19.9676 18.6948 20.1364 18.8636C20.3052 19.0324 20.4 19.2613 20.4 19.5ZM14.4 6.90001C14.4 6.66131 14.4948 6.43239 14.6636 6.26361C14.8324 6.09483 15.0613 6.00001 15.3 6.00001H19.5C19.7387 6.00001 19.9676 6.09483 20.1364 6.26361C20.3052 6.43239 20.4 6.66131 20.4 6.90001V11.1C20.4 11.3387 20.3052 11.5676 20.1364 11.7364C19.9676 11.9052 19.7387 12 19.5 12C19.2613 12 19.0324 11.9052 18.8636 11.7364C18.6948 11.5676 18.6 11.3387 18.6 11.1V9.07201L13.836 13.836C13.6672 14.0045 13.4385 14.0992 13.2 14.0992C12.9615 14.0992 12.7327 14.0045 12.564 13.836L10.8 12.072L8.13598 14.736C7.96537 14.895 7.73971 14.9815 7.50655 14.9774C7.27339 14.9733 7.05092 14.8788 6.88603 14.714C6.72113 14.5491 6.62668 14.3266 6.62257 14.0934C6.61845 13.8603 6.705 13.6346 6.86398 13.464L10.164 10.164C10.3327 9.99547 10.5615 9.9008 10.8 9.9008C11.0385 9.9008 11.2672 9.99547 11.436 10.164L13.2 11.928L17.328 7.80001H15.3C15.0613 7.80001 14.8324 7.70518 14.6636 7.5364C14.4948 7.36762 14.4 7.1387 14.4 6.90001Z" fill="#0F74FF"/>
</svg>
