<svg width="30" height="30" viewBox="0 0 30 30" fill="none" xmlns="http://www.w3.org/2000/svg">
<path d="M26.4208 24.4881C27.9467 22.6522 29.008 20.4758 29.5148 18.1431C30.0217 15.8103 29.9593 13.3897 29.3328 11.0862C28.7063 8.78263 27.5343 6.66385 25.9158 4.90908C24.2973 3.15431 22.2799 1.81516 20.0344 1.00493C17.7889 0.194702 15.3813 -0.0627787 13.0152 0.254271C10.6491 0.571321 8.39425 1.45358 6.44126 2.8264C4.48828 4.19922 2.89467 6.02223 1.79524 8.1412C0.695815 10.2602 0.122915 12.6128 0.125006 15C0.125808 18.4703 1.34873 21.8295 3.57919 24.4881L3.55794 24.5062C3.63232 24.5954 3.71732 24.6719 3.79382 24.7601C3.88944 24.8696 3.99251 24.9726 4.09132 25.0789C4.38882 25.4019 4.69482 25.7121 5.01569 26.0032C5.11344 26.0925 5.21438 26.1754 5.31319 26.2604C5.65319 26.5536 6.00276 26.832 6.36507 27.0912C6.41182 27.1231 6.45432 27.1645 6.50107 27.1975V27.1847C8.98955 28.9359 11.9582 29.8758 15.0011 29.8758C18.044 29.8758 21.0126 28.9359 23.5011 27.1847V27.1975C23.5478 27.1645 23.5893 27.1231 23.6371 27.0912C23.9983 26.8309 24.3489 26.5536 24.6889 26.2604C24.7878 26.1754 24.8887 26.0914 24.9864 26.0032C25.3073 25.7111 25.6133 25.4019 25.9108 25.0789C26.0096 24.9726 26.1116 24.8696 26.2083 24.7601C26.2838 24.6719 26.3698 24.5954 26.4442 24.5051L26.4208 24.4881ZM15 6.49999C15.9456 6.49999 16.8701 6.7804 17.6563 7.30577C18.4426 7.83114 19.0554 8.57787 19.4173 9.45153C19.7792 10.3252 19.8739 11.2865 19.6894 12.214C19.5049 13.1415 19.0495 13.9934 18.3809 14.6621C17.7122 15.3308 16.8603 15.7861 15.9328 15.9706C15.0053 16.1551 14.044 16.0604 13.1703 15.6985C12.2966 15.3367 11.5499 14.7238 11.0245 13.9376C10.4992 13.1513 10.2188 12.2269 10.2188 11.2812C10.2188 10.0132 10.7225 8.79704 11.6192 7.90038C12.5158 7.00372 13.7319 6.49999 15 6.49999ZM6.50744 24.4881C6.52587 23.093 7.09282 21.7613 8.08564 20.781C9.07845 19.8007 10.4173 19.2507 11.8125 19.25H18.1875C19.5827 19.2507 20.9216 19.8007 21.9144 20.781C22.9072 21.7613 23.4741 23.093 23.4926 24.4881C21.1623 26.588 18.1368 27.7501 15 27.7501C11.8632 27.7501 8.83767 26.588 6.50744 24.4881Z" fill="#0F74FF"/>
</svg>
